<svg xmlns="http://www.w3.org/2000/svg">
    <path id="icon" fill-rule="evenodd" d="M6.31 12.736H0v-1.812h6.31V8.992c0-.167.165-.302.369-.302.068 0 .136.015.195.045l4.833 2.477c.107.05.174.15.174.256a.289.289 0 0 1-.174.256l-4.833 2.475a.419.419 0 0 1-.508-.096.264.264 0 0 1-.056-.16v-1.207zm2.84-8.012L3.687 1.569 4.592 0l5.465 3.155.332-.576.634-1.097c.083-.145.294-.18.47-.078.06.035.11.082.146.137l2.948 4.561a.289.289 0 0 1 .023.31.289.289 0 0 1-.28.134l-5.423-.273a.419.419 0 0 1-.391-.337.264.264 0 0 1 .031-.167l.604-1.045zm1.269 15.99L4.954 23.87l-.905-1.568 5.464-3.155-.332-.576-.634-1.097c-.084-.146-.008-.345.168-.447a.431.431 0 0 1 .192-.058l5.424-.272a.289.289 0 0 1 .279.135.289.289 0 0 1-.023.309l-2.948 4.56a.419.419 0 0 1-.488.17.264.264 0 0 1-.128-.11l-.604-1.046zm7.035-13.413h5.567c.77 0 1.395.624 1.395 1.395v5.544c0 .77-.624 1.394-1.395 1.394h-5.567c-.77 0-1.395-.624-1.395-1.394V8.696c0-.77.625-1.395 1.395-1.395z"/>
</svg>
