<svg xmlns="http://www.w3.org/2000/svg">
    <path id="icon" fill-rule="nonzero" d="M11.632 9.34l-.096-.328a3.505 3.505 0 0 0-.307-.73l-.168-.3.533-1.107-.355-.35-1.12.525-.304-.165a3.613 3.613 0 0 0-.74-.303l-.332-.095-.416-1.154h-.504l-.416 1.154-.332.095a3.588 3.588 0 0 0-.74.302l-.303.166-1.122-.526-.354.35.532 1.107-.167.3a3.48 3.48 0 0 0-.307.73l-.096.33-1.17.41v.495l1.17.41.096.33c.073.252.176.496.307.73l.168.299-.533 1.107.355.35 1.12-.526.303.165c.235.128.483.23.741.304l.332.094.416 1.154h.504l.416-1.154.332-.094c.258-.074.506-.176.74-.304l.303-.165 1.121.526.355-.35-.533-1.107.168-.3c.13-.232.233-.476.307-.73l.096-.33 1.17-.41v-.494l-1.17-.41zm2.518-.53v2.377l-1.429.501a4.828 4.828 0 0 1-.15.359l.65 1.352-1.701 1.68-1.37-.642a4.96 4.96 0 0 1-.364.15l-.508 1.41H6.872l-.508-1.411a4.973 4.973 0 0 1-.365-.15l-1.369.644-1.702-1.681.651-1.352a4.804 4.804 0 0 1-.15-.359L2 11.187V8.81l1.428-.502c.046-.121.096-.241.151-.359l-.65-1.352 1.701-1.68L6 5.559c.118-.054.24-.104.364-.149L6.872 4h2.406l.508 1.41c.124.045.245.095.365.15l1.369-.643 1.702 1.68-.651 1.352c.055.118.105.238.15.36l1.429.5zm-6.075 3.632c1.366 0 2.475-1.094 2.475-2.444 0-1.35-1.109-2.444-2.475-2.444-1.367 0-2.475 1.094-2.475 2.444 0 1.35 1.108 2.444 2.475 2.444zm0-1.333a1.118 1.118 0 0 1-1.126-1.11c0-.614.504-1.112 1.126-1.112.622 0 1.126.498 1.126 1.111s-.504 1.11-1.126 1.11zM21 15.786l-.9.316a2.903 2.903 0 0 1-.254.605l.41.852-.716.707-.863-.404c-.192.104-.397.19-.612.25l-.32.889H16.73l-.32-.888a2.99 2.99 0 0 1-.613-.251l-.862.404-.717-.707.41-.852a2.886 2.886 0 0 1-.254-.605l-.9-.316v-1l.9-.316c.062-.212.148-.415.254-.605l-.41-.852.717-.707.862.405c.192-.105.398-.19.613-.251l.32-.888h1.013l.32.888c.216.061.421.146.613.25l.863-.404.716.708-.41.851c.107.19.192.393.255.605l.899.316v1zm-3.762.738c.692 0 1.254-.554 1.254-1.238 0-.684-.562-1.238-1.254-1.238-.693 0-1.254.554-1.254 1.238 0 .684.561 1.238 1.254 1.238z"/>
</svg>
