<svg xmlns="http://www.w3.org/2000/svg">
    <path id="icon" fill-rule="evenodd" d="M21.499 9.596v1.386h-2.474c.019-.225.037-.453.037-.688 0-.24-.017-.469-.035-.697H21.5v-.001zm-10.381-6.62V1h1.336v1.984a7.275 7.275 0 0 0-1.337-.007zm5.382 1.56l1.531-1.76.994.927-1.563 1.795c-.244-.3-.578-.679-.962-.962zm-10.469.962L4.47 3.703l.993-.927 1.53 1.76c-.381.283-.717.662-.96.962zm-1.557 5.484H2V9.596h2.471a9.01 9.01 0 0 0-.034.698c0 .235.018.463.037.688zm9.225 9.21H9.8a.497.497 0 0 0-.487.505c0 .279.218.505.488.505h3.9c.268 0 .487-.226.487-.505a.497.497 0 0 0-.488-.505zm0 2.02H9.8a.497.497 0 0 0-.487.505c0 .279.218.505.488.505h3.9c.268 0 .487-.226.487-.505a.497.497 0 0 0-.488-.505zm3.9-11.918c0 3.605-3.133 6.043-3.133 8.888h-1.94c-.002-1.877.849-3.423 1.678-4.916.742-1.339 1.445-2.603 1.445-3.972 0-2.618-2.023-3.81-3.902-3.81-1.877 0-3.897 1.192-3.897 3.81 0 1.369.703 2.633 1.445 3.972.83 1.493 1.681 3.04 1.676 4.916H9.033c0-2.845-3.133-5.283-3.133-8.888 0-3.76 2.923-5.83 5.847-5.83 2.925 0 5.852 2.071 5.852 5.83z"/>
</svg>
