<?xml version="1.0" encoding="UTF-8" standalone="no"?>
<svg width="18px" height="18px" viewBox="0 0 18 18" version="1.1" xmlns="http://www.w3.org/2000/svg" xmlns:xlink="http://www.w3.org/1999/xlink">
    <!-- Generator: sketchtool 3.6.1 (26313) - http://www.bohemiancoding.com/sketch -->
    <title>gear-icon</title>
    <desc>Created with sketchtool.</desc>
    <defs></defs>
    <g id="Spec" stroke="none" stroke-width="1" fill="none" fill-rule="evenodd">
        <g id="flogo-gen-cmpt-tiles" transform="translate(-555.000000, -594.000000)" fill="#FFFFFF">
            <g id="Pullout-Menu-Copy" transform="translate(415.000000, 568.000000)">
                <path d="M158,36.212 L158,33.788 L155.84825,33.023 C155.69975,32.50775 155.49425,32.0165 155.24,31.55675 L156.221,29.4935 L154.50725,27.77975 L152.444,28.76 C151.98425,28.50575 151.49225,28.30025 150.97775,28.15175 L150.212,26 L147.788,26 L147.02225,28.15175 C146.50775,28.30025 146.01575,28.505 145.556,28.76 L143.49275,27.779 L141.779,29.49275 L142.76,31.55675 C142.50575,32.0165 142.2995,32.50775 142.15175,33.023 L140,33.788 L140,36.212 L142.15175,36.977 C142.2995,37.49225 142.50575,37.9835 142.76,38.44325 L141.779,40.5065 L143.49275,42.221 L145.556,41.24 C146.01575,41.49425 146.50775,41.69975 147.02225,41.84825 L147.788,44 L150.212,44 L150.97775,41.84825 C151.493,41.69975 151.98425,41.49425 152.444,41.24 L154.50725,42.221 L156.221,40.5065 L155.24,38.44325 C155.49425,37.9835 155.69975,37.49225 155.84825,36.977 L158,36.212 Z M149,38 C147.34325,38 146,36.65675 146,35 C146,33.34325 147.34325,32 149,32 C150.65675,32 152,33.34325 152,35 C152,36.65675 150.65675,38 149,38 Z" id="gear-icon"></path>
            </g>
        </g>
    </g>
</svg>