<?xml version="1.0" encoding="UTF-8" standalone="no"?>
<svg width="19px" height="19px" viewBox="0 0 19 19" version="1.1" xmlns="http://www.w3.org/2000/svg" xmlns:xlink="http://www.w3.org/1999/xlink">
    <!-- Generator: sketchtool 3.6.1 (26313) - http://www.bohemiancoding.com/sketch -->
    <title>F2D28BA0-61F9-411A-AD0E-FBE92E1E7358</title>
    <desc>Created with sketchtool.</desc>
    <defs></defs>
    <g id="Page-1" stroke="none" stroke-width="1" fill="none" fill-rule="evenodd">
        <g id="Flogo_Transformation" transform="translate(-1394.000000, -20.000000)" fill="#B5B5B5">
            <g id="Transformation">
                <g id="Group-5" transform="translate(53.000000, 20.000000)">
                    <path d="M1359.33834,2.83483375 L1352.76099,9.41218574 L1359.33834,15.9895377 C1359.63901,16.2902126 1359.82508,16.7054977 1359.82508,17.1639385 C1359.82508,18.0808201 1359.08082,18.8250789 1358.16394,18.8250789 C1357.70621,18.8250789 1357.29021,18.6390142 1356.98954,18.3376319 L1350.41289,11.7609874 L1343.83554,18.3376319 C1343.53487,18.6390142 1343.11958,18.8250789 1342.66114,18.8250789 C1341.74426,18.8250789 1341,18.0808201 1341,17.1639385 C1341,16.7054977 1341.18606,16.2902126 1341.48674,15.9895377 L1348.06409,9.41218574 L1341.48674,2.83483375 C1341.18606,2.53415885 1341,2.11958121 1341,1.66114042 C1341,0.743551354 1341.74426,0 1342.66114,0 C1343.11958,0 1343.53487,0.186064706 1343.83554,0.486739611 L1350.41289,7.06338413 L1356.98954,0.486739611 C1357.29021,0.186064706 1357.70621,0 1358.16394,0 C1359.08082,0 1359.82508,0.743551354 1359.82508,1.66114042 C1359.82508,2.11958121 1359.63901,2.53415885 1359.33834,2.83483375" id="7-copy"></path>
                </g>
            </g>
        </g>
    </g>
</svg>