<?xml version="1.0" encoding="UTF-8" standalone="no"?>
<svg width="17px" height="17px" viewBox="0 0 17 17" version="1.1" xmlns="http://www.w3.org/2000/svg" xmlns:xlink="http://www.w3.org/1999/xlink">
    <!-- Generator: sketchtool 3.7 (28169) - http://www.bohemiancoding.com/sketch -->
    <title>43DFC60E-5127-403F-B837-9CDB5FE5D2B5</title>
    <desc>Created with sketchtool.</desc>
    <defs></defs>
    <g id="Visual-Design" stroke="none" stroke-width="1" fill="none" fill-rule="evenodd">
        <g id="Flogo_LargeFlow" transform="translate(-1409.000000, -80.000000)" fill="#FFFFFF">
            <path d="M1417.5,80 C1412.80578,80 1409,83.8057826 1409,88.5 C1409,93.1942174 1412.80578,97 1417.5,97 C1422.19422,97 1426,93.1942174 1426,88.5 C1426,83.8057826 1422.19422,80 1417.5,80 L1417.5,80 Z M1418.6087,92.1956522 C1418.6087,92.8076522 1418.112,93.3043478 1417.5,93.3043478 C1416.888,93.3043478 1416.3913,92.8076522 1416.3913,92.1956522 L1416.3913,87.7608696 C1416.3913,87.1481304 1416.888,86.6521739 1417.5,86.6521739 C1418.112,86.6521739 1418.6087,87.1481304 1418.6087,87.7608696 L1418.6087,92.1956522 L1418.6087,92.1956522 Z M1417.5,85.9130435 C1416.888,85.9130435 1416.3913,85.4163478 1416.3913,84.8043478 C1416.3913,84.1916087 1416.888,83.6956522 1417.5,83.6956522 C1418.112,83.6956522 1418.6087,84.1916087 1418.6087,84.8043478 C1418.6087,85.4163478 1418.112,85.9130435 1417.5,85.9130435 L1417.5,85.9130435 Z" id="Info-Circle-Icon"></path>
        </g>
    </g>
</svg>