<svg xmlns="http://www.w3.org/2000/svg" xmlns:xlink="http://www.w3.org/1999/xlink" width="370" height="372" viewBox="0 0 370 372">
    <defs>
        <path id="a" d="M0 0v325.598h352.775V0z"/>
    </defs>
    <g fill="none" fill-rule="evenodd" transform="translate(8.452 22.95)">
        <mask id="b" fill="#fff">
            <use xlink:href="#a"/>
        </mask>
        <path opacity="0.08" fill="#866AAF" d="M337.118 161.689c0-14.68-5.53-28.625-15.574-39.267-10.01-10.608-23.576-17.007-38.2-18.02l-11.962-.828-2.319-11.764c-4.18-21.209-15.669-40.527-32.35-54.396a93.911 93.911 0 0 0-27.684-15.978c-10.421-3.834-21.404-5.779-32.641-5.779-17.6 0-34.774 4.88-49.663 14.113a95.043 95.043 0 0 0-34.199 36.847l-3.88 7.449-8.351.888C62.639 76.83 46.32 85.163 34.345 98.416a72.318 72.318 0 0 0-18.688 48.574c0 39.997 32.54 72.536 72.537 72.536h59.872l20.813-84.337c2.261-9.162 11.521-14.757 20.684-12.496l82.643 20.396c9.162 2.26 14.757 11.521 12.496 20.683l-13.76 55.754h8.339c31.891 0 57.837-25.946 57.837-57.837zm-121.892-5.29l17.126 4.152c3.246.783 6.523-1.197 7.314-4.423.791-3.228-1.198-6.485-4.446-7.271l-17.129-4.147c-3.246-.786-6.523 1.193-7.314 4.422-.792 3.229 1.2 6.482 4.45 7.268zm50.062 23.801l-86.867-21.437-28.584 115.823 86.868 21.438 15.014-60.84 3.864-15.658 9.705-39.326zm-73.77 112.211a6.477 6.477 0 1 0-3.105 12.577 6.477 6.477 0 0 0 3.104-12.577zM352.774 161.69c0 40.57-32.925 73.495-73.494 73.495h-12.203L247.974 312.6c-2.262 9.163-11.522 14.758-20.684 12.496l-82.644-20.395c-9.162-2.261-14.757-11.521-12.496-20.684l12.052-48.833H88.194C39.54 235.184 0 195.644 0 146.99c0-45.42 34.395-82.902 78.64-87.606C97.012 24.107 133.907 0 176.387 0c53.504 0 98.042 38.07 108.037 88.782 38.217 2.646 68.35 34.102 68.35 72.907zM152.362 99.253c8.517-7.429 19.1-11.736 30.459-12.503 2.204-.16 3.73-1.846 3.452-4.063-.146-.927-.482-1.69-1.007-2.287-.876-.995-2.128-1.66-3.408-1.596-13.01.793-25.267 5.86-34.92 14.278-9.841 8.581-16.5 20.016-18.84 32.952-.448 2.152.924 4.47 3.095 5.038 2.186.203 4.237-.884 4.685-3.032 2.091-11.314 7.78-21.197 16.484-28.787zm33.939 1.338c-.872-.996-2.128-1.657-3.412-1.595-8.43.672-16.41 3.765-22.658 9.21-6.43 5.612-10.56 13.081-12.173 21.517-.453 2.148 1.11 4.304 3.105 4.674 2.172.568 4.415-.683 4.675-2.667 1.36-6.815 4.707-12.9 9.82-17.352 4.918-4.293 11.24-6.99 18.012-7.273 2.2-.16 3.915-2.01 3.634-4.228-.146-.926-.481-1.69-1.003-2.286zm-70.364 23.394c-.45 2.148-2.328 3.435-4.496 2.868-2.171-.567-3.543-2.886-3.284-4.874 3.237-17.232 12.067-32.67 25.314-44.22 13.056-11.387 29.405-18.264 46.99-19.18 1.277-.066 2.533.6 3.405 1.596.529.596 1.05 1.192 1.01 2.285.278 2.221-1.251 3.9-3.452 4.064-15.932.887-30.609 7.008-42.53 17.403-11.926 10.395-19.953 24.08-22.957 40.058z" mask="url(#b)"/>
    </g>
</svg>
