<?xml version="1.0" encoding="UTF-8" standalone="no"?>
<svg width="16px" height="15px" viewBox="0 0 16 15" version="1.1" xmlns="http://www.w3.org/2000/svg" xmlns:xlink="http://www.w3.org/1999/xlink">
    <!-- Generator: sketchtool 39.1 (31720) - http://www.bohemiancoding.com/sketch -->
    <title>CD57CEF7-77CD-4282-8639-904127CCEF3D</title>
    <desc>Created with sketchtool.</desc>
    <defs></defs>
    <g id="All-Screens" stroke="none" stroke-width="1" fill="none" fill-rule="evenodd">
        <g id="Flogo_LandingPage-2" transform="translate(-254.000000, -267.000000)" fill="#0081CB">
            <path d="M254,281.666667 L270,281.666667 L270,267 L254,267 L254,281.666667 Z M267.333333,269.666667 L268.666667,269.666667 L268.666667,268.333333 L267.333333,268.333333 L267.333333,269.666667 Z M258,273.666667 L266,273.666667 L266,268.333333 L258,268.333333 L258,273.666667 Z M255.333333,269.666667 L256.666667,269.666667 L256.666667,268.333333 L255.333333,268.333333 L255.333333,269.666667 Z M267.333333,272.333333 L268.666667,272.333333 L268.666667,271 L267.333333,271 L267.333333,272.333333 Z M255.333333,272.333333 L256.666667,272.333333 L256.666667,271 L255.333333,271 L255.333333,272.333333 Z M267.333333,275 L268.666667,275 L268.666667,273.666667 L267.333333,273.666667 L267.333333,275 Z M255.333333,275 L256.666667,275 L256.666667,273.666667 L255.333333,273.666667 L255.333333,275 Z M258,280.333333 L266,280.333333 L266,275 L258,275 L258,280.333333 Z M267.333333,277.666667 L268.666667,277.666667 L268.666667,276.333333 L267.333333,276.333333 L267.333333,277.666667 Z M255.333333,277.666667 L256.666667,277.666667 L256.666667,276.333333 L255.333333,276.333333 L255.333333,277.666667 Z M267.333333,280.333333 L268.666667,280.333333 L268.666667,279 L267.333333,279 L267.333333,280.333333 Z M255.333333,280.333333 L256.666667,280.333333 L256.666667,279 L255.333333,279 L255.333333,280.333333 Z" id="video"></path>
        </g>
    </g>
</svg>