<?xml version="1.0" encoding="UTF-8" standalone="no"?>
<svg width="33px" height="33px" viewBox="0 0 33 33" version="1.1" xmlns="http://www.w3.org/2000/svg" xmlns:xlink="http://www.w3.org/1999/xlink">
  <!-- Generator: sketchtool 3.7 (28169) - http://www.bohemiancoding.com/sketch -->
  <title>DAFEAE94-7110-462B-B553-75C1ECB09F7F</title>
  <desc>Created with sketchtool.</desc>
  <defs></defs>
  <g id="Visual-Design" stroke="none" stroke-width="1" fill="none" fill-rule="evenodd">
    <g id="flogo-gen-cmpt-icons" transform="translate(-65.000000, -699.000000)">
      <g id="Group-6" transform="translate(65.000000, 699.000000)">
        <g id="trigger-icon-selected">
          <g id="Group-2">
            <ellipse id="icon-bg-copy" fill="#79b8dc" cx="16.5" cy="16.5" rx="16.5" ry="16.5"></ellipse>
            <g id="Group" transform="translate(17.414668, 17.549544) rotate(-354.000000) translate(-17.414668, -17.549544) translate(7.914668, 5.049544)" stroke="#FFFFFF" stroke-width="1.65">
              <path d="M11.3393848,22.8110833 L15.8577874,20.170655 C15.8577874,20.170655 16.1735286,17.6457375 15.0461707,14.6502442 C14.5786308,13.3822194 13.8196376,13.1514855 12.876462,13.1474375 C11.8361353,13.1444016 8.80522224,14.9457455 8.80522224,14.9457455 L5.40493252,10.0851528 C5.00418409,9.52248582 4.22090306,9.39193898 3.65823607,9.79268741 C3.09556908,10.1934358 2.96401026,10.9767169 3.36577068,11.5393839 L7.0842217,17.6440996 C7.0842217,17.6440996 4.34875973,17.0362191 4.03469672,18.4280065 C3.65823608,19.7716811 5.55036951,20.0688803 6.47634126,20.3795615 C7.44684062,20.7054226 11.3393848,22.8110833 11.3393848,22.8110833 Z" id="Fill-1" transform="translate(9.515743, 16.185720) rotate(-336.000000) translate(-9.515743, -16.185720) "></path>
              <path d="M10.8997325,11.8883658 C12.3606542,10.7470043 13.2998657,8.96877678 13.2998657,6.97118466 C13.2998657,3.52697913 10.5077854,0.734898875 7.06357991,0.734898875 C3.61937437,0.734898875 0.82729412,3.52697913 0.82729412,6.97118466 C0.82729412,8.68684319 1.52009987,10.2406883 2.64120873,11.3682173 L2.64120873,11.3682173" id="Oval-410" transform="translate(7.063580, 6.311632) rotate(-5.000000) translate(-7.063580, -6.311632) "></path>
            </g>
          </g>
        </g>
      </g>
    </g>
  </g>
</svg>
