<?xml version="1.0" encoding="UTF-8" standalone="no"?>
<svg width="16px" height="16px" viewBox="0 0 16 16" version="1.1" xmlns="http://www.w3.org/2000/svg" xmlns:xlink="http://www.w3.org/1999/xlink">
    <!-- Generator: sketchtool 39.1 (31720) - http://www.bohemiancoding.com/sketch -->
    <title>6BA6DB7E-E21F-44AE-ABEC-6D5F4F46EDB1</title>
    <desc>Created with sketchtool.</desc>
    <defs></defs>
    <g id="Mapper" stroke="none" stroke-width="1" fill="none" fill-rule="evenodd">
        <g transform="translate(-391.000000, -190.000000)" id="Group-3" fill="#D8D8D8">
            <g transform="translate(374.000000, 127.000000)">
                <path d="M32.2570704,63.7431518 C31.2644225,62.7522827 29.6562616,62.7522827 28.6636136,63.7431518 L25.0007782,67.4059872 L21.3379428,63.7431518 C20.3452948,62.7522827 18.7371339,62.7522827 17.744486,63.7431518 C16.751838,64.7357997 16.751838,66.3439606 17.744486,67.3348296 L21.4073214,70.999444 L17.744486,74.6622794 C16.751838,75.6531485 16.751838,77.2630883 17.744486,78.2557362 C18.7371339,79.2483842 20.3452948,79.2483842 21.3379428,78.2557362 L25.0007782,74.5929008 L28.6636136,78.2557362 C29.6562616,79.2483842 31.2644225,79.2483842 32.2552915,78.2557362 C33.2479395,77.2630883 33.2479395,75.6531485 32.2552915,74.6622794 L28.5924561,70.999444 L32.2552915,67.3348296 C33.2479395,66.3439606 33.2479395,64.7357997 32.2570704,63.7431518 L32.2570704,63.7431518 Z" id="closeicon"></path>
            </g>
        </g>
    </g>
</svg>