<?xml version="1.0" encoding="UTF-8" standalone="no"?>
<svg width="8px" height="13px" viewBox="0 0 8 13" version="1.1" xmlns="http://www.w3.org/2000/svg" xmlns:xlink="http://www.w3.org/1999/xlink">
    <!-- Generator: sketchtool 39.1 (31720) - http://www.bohemiancoding.com/sketch -->
    <title>D8FEE0B4-BD75-48D1-83F7-C435B37BBF1A</title>
    <desc>Created with sketchtool.</desc>
    <defs></defs>
    <g id="Collapsible-Code" stroke="none" stroke-width="1" fill="none" fill-rule="evenodd">
        <g id="Collapsed" transform="translate(-130.000000, -176.000000)" fill="#727272">
            <path d="M130.323171,187.366991 L135.171135,182.502373 L130.259325,177.573289 L130.259719,177.573289 C130.099316,177.406389 130,177.178978 130,176.928628 C130,176.415668 130.414605,176 130.925767,176 C131.17524,176 131.40146,176.09927 131.567775,176.260237 L131.568169,176.259842 L137.120015,181.831214 L137.119621,181.831609 C137.294212,182.000882 137.402987,182.237785 137.402987,182.5 L137.402987,182.502373 L137.402987,182.50435 C137.402987,182.766565 137.294212,183.003468 137.119621,183.172346 L137.120015,183.172741 L131.568169,188.744113 L131.565804,188.74174 C131.399489,188.901126 131.174452,189 130.925767,189 C130.414605,189 130,188.584332 130,188.071372 C130,187.789778 130.125722,187.537451 130.323171,187.366991" id="arrow-right"></path>
        </g>
    </g>
</svg>