<svg xmlns="http://www.w3.org/2000/svg" xmlns:xlink="http://www.w3.org/1999/xlink" width="370" height="372" viewBox="0 0 370 372">
    <defs>
        <path id="a" d="M0 295.892h356.76V0H0z"/>
    </defs>
    <g fill="none" fill-rule="evenodd" transform="translate(7 38)">
        <mask id="b" fill="#fff">
            <use xlink:href="#a"/>
        </mask>
        <path opacity="0.08" fill="#899BCF" d="M324.931 165.833l-3.622 18.43-230.225 77.055 3.257-22.305 231.212-76.341-.622 3.161zm-197.804-16.077a107.854 107.854 0 0 1 25.383-4.208 99.464 99.464 0 0 1 3.452-.092c-3.26-8 4.508-16.87 10.41-19.152.107-.976 3.846-8.209 4.755-9.627.909-1.418 2.176-1.526 2.612-1.395.436.134.264.567.192.688-.065.124-1.365 1.955-1.365 1.955s-.163.183-1.771 2.685c1.472-1.677 3.257-3.648 4.068-4.486 1.478-1.526 2.804-1.778 3.335-1.503.528.275.212.763.095.9-.114.138-.59.625-.59.625s-.938.953-6.436 7.211c6.726-7.243 9.7-8.216 10.328-7.368.625.849-.306 1.411-.42 1.55-.058.061-2.922 2.773-5.912 5.602a26.827 26.827 0 0 1 16.136 2.289c-.056-.01-.114-.013-.173-.02a27.301 27.301 0 0 1 5.518 3.461 24.489 24.489 0 0 1 7.508 9.407c.006.017.016.03.023.043 1.39-8.608 3.185-22.273 2.752-33.415-1.12-28.904-6.645-42.558-5.43-43.108 1.339-.518 4.394-.403 8.162 4.997 3.769 5.399 6.853 17.187 7.026 30.193.036 2.636-.166 7.508-1.348 14.057 2.749-8.36 5.533-17.806 7.97-27.93 5.032-20.931 8.738-42.153 9.296-43.986.556-1.83 2.472-10.98 7.553-2.099 14.94 26.097-3.368 65.714-12.179 79.258-5.501 8.457-11.504 15.589-16.422 20.858 6.202-6.202 14.657-15.947 24.178-30.453 11.305-17.226 18.608-32.655 22.796-39.715 1.208-2.037 5.782-9.093 7.491.576 5.033 28.409-25.021 56.697-37.342 66.029-4.694 3.556-8.915 6.117-12.57 7.967 4.795-2.384 11.188-5.973 16.592-10.436 13.384-11.048 35.616-34.954 39.046-33.127 2.046 1.09 2.065 8.323-4.896 16.984-10.412 12.96-29.059 23.128-42.631 27.698 17.06-5.31 41.407-16.614 43.628-13.883 1.473 1.804-1.296 8.477-11.05 13.753-12.945 7-26.784 8.254-37.112 6.964 3.56 3.117 4.833 5.613 6.123 9.126-.023.2-.075.406-.146.62 6.341.294 13.92.654 14.054.673.225.03 1.632-.176 1.661 1.068.027 1.241-3.8 2.64-16.464 1.29 10.617 1.408 12.337 1.543 12.337 1.543s.873.078 1.105.11c.225.036.941.233.612.885-.326.652-1.892 1.437-4.622 1.202-1.502-.131-4.901-.534-7.743-.91 3.646 1.011 3.952 1.054 3.952 1.054s2.785.644 2.954.707c.17.056.69.31.348.763-.348.455-1.732 1.323-3.794.75-1.964-.547-9.403-2.928-10.41-3.392-3.126 3.26-5.885 5.098-11.09 6.614-8.654 2.518-16.462 2.187-24.011-3.864l-.037.01c-5.49-3.85-9.504-7.567-13.135-10.662a6.663 6.663 0 0 1-.97-.429c-4.838-2.105-9.27-3.759-14.309-4.646a112.504 112.504 0 0 0-3.948-.23c-11.253-.428-22.767.917-34.18 4.234a108.03 108.03 0 0 0-26.679 11.854c10.387-8.006 22.403-14.237 35.734-18.117zm-44.232 100.02L41.705 123.95l.972-26.91 43.218 132.192-3 20.544zm273.576-98.857c-.987-3.022-4.227-4.669-7.237-3.674l-15.516 5.128-9.017-27.546 15.387-5.084c.043-.014.076-.043.118-.059l.019-.006c3.006-.995 4.641-4.25 3.654-7.276-.99-3.022-4.228-4.666-7.237-3.674l-15.532 5.132-9.016-27.544 15.402-5.09c3.006-.992 4.645-4.25 3.655-7.276-.987-3.022-4.228-4.669-7.238-3.674l-15.404 5.09-9.023-27.562 15.418-5.095c3.007-.996 4.641-4.25 3.654-7.276-.99-3.022-4.228-4.666-7.237-3.674l-15.419 5.095L284.006.512l-33.06 10.923-2.443-7.47c-.99-3.024-4.228-4.669-7.238-3.676a5.704 5.704 0 0 0-2.64 1.836h-.115a5.77 5.77 0 0 0-.987 5.412l2.46 7.521-27.422 9.061-2.46-7.521c-.99-3.026-4.227-4.67-7.237-3.677-3.01.995-4.647 4.25-3.657 7.275l2.462 7.525-27.422 9.057-2.459-7.521c-.99-3.026-4.228-4.67-7.237-3.678-3.01.996-4.644 4.254-3.658 7.276l2.46 7.525-27.42 9.057-2.458-7.518c-.99-3.026-4.231-4.673-7.238-3.678-3.009.993-4.644 4.25-3.654 7.276l2.456 7.522-27.418 9.06-2.46-7.521c-.99-3.026-4.227-4.673-7.237-3.678-3.006.993-4.644 4.25-3.658 7.276l2.463 7.521-27.422 9.06-2.46-7.52c-.989-3.026-4.226-4.67-7.235-3.678-3.01.996-4.645 4.253-3.655 7.276l2.459 7.522-15.028 5.166-1.235 42.66-16.81 5.553v.021l-11.4 3.768C.937 136.517-.7 139.775.29 142.8c.987 3.023 4.227 4.67 7.237 3.674l28.1-9.286 4.685 14.312 4.33 13.235-27.97 9.241c-.042.014-.075.044-.117.06l-.019.005c-3.006.996-4.64 4.25-3.654 7.277.99 3.022 4.227 4.665 7.237 3.673l28.115-9.29-.006-.02.114-.038 9.022 27.564-28.1 9.286c-3.005.993-4.644 4.251-3.654 7.276.987 3.022 4.228 4.67 7.238 3.674l28.102-9.286 9.019 27.564-28.112 9.29c-3.006.995-4.641 4.25-3.655 7.275.99 3.023 4.228 4.666 7.238 3.674l28.115-9.29 7.342 22.427 21.747-7.302 7.889 24.13c.99 3.026 4.23 4.673 7.237 3.677 3.01-.996 4.645-4.254 3.658-7.276l-7.908-24.182 27.379-9.194 7.947 24.315c.99 3.026 4.228 4.673 7.237 3.677 3.01-.995 4.645-4.25 3.658-7.275l-7.97-24.368 27.38-9.195 8.008 24.503c.987 3.022 4.231 4.669 7.238 3.677 3.006-.995 4.644-4.254 3.654-7.276l-8.025-24.555 27.375-9.194 8.071 24.686c.99 3.025 4.228 4.672 7.238 3.677 3.01-.993 4.644-4.25 3.654-7.273l-8.087-24.742 27.376-9.19 8.133 24.869c.99 3.025 4.228 4.672 7.237 3.677 3.01-.993 4.645-4.254 3.658-7.273l-8.15-24.928 25.24-8.474 8.543 26.133c.99 3.026 4.231 4.673 7.237 3.677 3.007-.995 4.645-4.254 3.658-7.276l-8.563-26.185 16.518-5.457 10.453-3.454 2.155-10.965 3.278-16.674 6.368-2.104v-.02l11.4-3.768c3.006-.992 4.644-4.25 3.654-7.276z" mask="url(#b)"/>
    </g>
</svg>
