<?xml version="1.0" encoding="UTF-8" standalone="no"?>
<svg width="14px" height="17px" viewBox="0 0 14 17" version="1.1" xmlns="http://www.w3.org/2000/svg" xmlns:xlink="http://www.w3.org/1999/xlink">
    <!-- Generator: sketchtool 3.6.1 (26313) - http://www.bohemiancoding.com/sketch -->
    <title>16A2FE2F-A805-4FC7-9072-A66E1F0B3661</title>
    <desc>Created with sketchtool.</desc>
    <defs></defs>
    <g id="Page-1" stroke="none" stroke-width="1" fill="none" fill-rule="evenodd">
        <g id="Flogo_Transformation" transform="translate(-1120.000000, -54.000000)" fill="#0081CB">
            <g id="Transformation">
                <g id="icon_trash" transform="translate(1120.000000, 54.000000)">
                    <path d="M12.3775884,5.67821272 C11.8072432,8.7858941 10.8884476,12.9997397 10.5296307,14.9053025 C9.81914357,15.7833121 8.19288424,16.2223558 6.56662491,16.2223558 C4.94040484,16.2223558 3.31414551,15.7833121 2.60365835,14.9053025 C2.24177874,12.9039802 1.32961908,8.66729578 0.772506678,5.5914173 C1.20812868,5.80764585 1.71144605,5.99144792 2.26164756,6.14336914 C2.62651142,7.97593343 3.72667885,13.4382378 3.87628402,14.2315565 C4.50780635,14.6804217 5.67727906,14.8582607 6.56662491,14.8582607 C7.4300549,14.8582607 8.61751164,14.6888791 9.26046051,14.2290621 C9.39502663,13.5405839 10.5056389,8.11850085 10.8940627,6.19411347 C11.4382171,6.0528322 11.9391393,5.88099519 12.3775884,5.67821272 L12.3775884,5.67821272 Z M12.9898702,4.1559216 C10.5398007,6.05844448 2.24704044,5.96818036 0.155041737,3.99293172 C-0.0298639799,3.05669481 -0.126734314,2.91030793 0.320392762,2.48626923 C0.793121565,2.03791067 1.71902448,1.65678251 2.922659,1.39896854 C2.86686137,1.8699321 3.23765447,2.27046939 3.70205878,2.27046939 L9.48404368,2.27046939 C9.94927259,2.27046939 10.3181024,1.86915262 10.2637969,1.40157981 C11.4615021,1.6593548 12.3826146,2.03943066 12.8537727,2.48626923 C13.3334517,2.94117545 13.2003777,3.04979639 12.9898702,4.1559216 L12.9898702,4.1559216 Z M9.48400441,1.49098649 C8.87682728,1.49098649 8.38454379,0.768172004 8.38454379,0.165008139 L4.80148014,0.165008139 C4.80148014,0.768210978 4.30927518,1.49098649 3.70201952,1.49098649 L9.48400441,1.49098649 L9.48400441,1.49098649 Z" id="trash-can-12-icon"></path>
                </g>
            </g>
        </g>
    </g>
</svg>