<svg xmlns="http://www.w3.org/2000/svg" xmlns:xlink="http://www.w3.org/1999/xlink" width="110" height="110" viewBox="0 0 110 110">
    <defs>
        <path id="a" d="M109.388.995H0v109.787h109.388z"/>
    </defs>
    <g fill="none" fill-rule="evenodd">
        <path fill="#FEFEFE" d="M47.034 29.492c3.993-3.482 8.908-5.532 14.245-5.829.737-.055 1.249-.617 1.156-1.36.013-.367-.161-.567-.339-.767-.292-.333-.712-.556-1.14-.534-5.89.307-11.365 2.61-15.739 6.424a25.907 25.907 0 0 0-8.478 14.81c-.087.667.373 1.443 1.1 1.633.726.19 1.355-.24 1.506-.96 1.006-5.352 3.694-9.935 7.689-13.417"/>
        <g transform="translate(0 -.777)">
            <mask id="b" fill="#fff">
                <use xlink:href="#a"/>
            </mask>
            <path fill="#FEFEFE" d="M87.256 76.202l-1.201 4.87-5.232 21.187-28.8-7.052 3.488-14.135 1.203-4.87 5.221-21.157 28.802 7.053-3.481 14.104zM68.78 105.058a3.348 3.348 0 0 1-4.043 2.45 3.334 3.334 0 0 1-2.46-4.028 3.347 3.347 0 0 1 4.044-2.448 3.332 3.332 0 0 1 2.459 4.026zm4.247-53.27a2.114 2.114 0 0 1 2.553-1.547l5.98 1.452a2.105 2.105 0 0 1 1.551 2.544 2.116 2.116 0 0 1-2.553 1.547l-5.978-1.452a2.104 2.104 0 0 1-1.553-2.543zm36.361 18.85c-3.63 3.439-8.525 5.564-13.919 5.564h-2.106l4.55-18.431c.778-3.156-1.176-6.372-4.344-7.147l-28.8-7.054c-3.169-.775-6.399 1.172-7.178 4.328l-6.985 28.304H30.148c-13.928 0-25.26-11.286-25.26-25.16 0-12.884 9.678-23.627 22.51-24.985l2.61-.277 1.21-2.316c5.676-10.856 16.818-17.6 29.078-17.6 15.604 0 29.12 11.061 32.135 26.302l.723 3.658 3.737.257c4.846.334 9.196 2.38 12.497 5.494v-6.227a25.175 25.175 0 0 0-12.16-4.125C93.811 13.957 78.586.994 60.296.994c-14.521 0-27.133 8.208-33.413 20.22C11.758 22.814 0 35.578 0 51.042c0 16.567 13.518 30.03 30.149 30.03h19.255l-4.557 18.463c-.778 3.155 1.177 6.37 4.344 7.147l16.746 4.1h18.678c.232-.428.431-.879.553-1.374l6.995-28.336h3.307c5.15 0 9.935-1.551 13.919-4.2v-6.234z" mask="url(#b)"/>
        </g>
        <path fill="#FEFEFE" d="M51.143 46.396c.727.19 1.479-.229 1.566-.893.456-2.283 1.576-4.32 3.289-5.812 1.647-1.438 3.764-2.341 6.033-2.436.737-.054 1.311-.673 1.217-1.416a1.486 1.486 0 0 0-.336-.766c-.292-.333-.713-.555-1.143-.534-2.823.225-5.496 1.261-7.589 3.085-2.153 1.88-3.537 4.381-4.077 7.207-.152.72.372 1.441 1.04 1.565M44.454 45.282c.733.069 1.42-.295 1.57-1.015.7-3.79 2.606-7.1 5.52-9.642 2.853-2.488 6.398-3.93 10.202-4.187.739-.054 1.25-.619 1.157-1.361a1.477 1.477 0 0 0-.338-.766c-.293-.334-.712-.557-1.141-.535a19.6 19.6 0 0 0-11.696 4.782c-3.296 2.875-5.527 6.704-6.31 11.037-.15.72.31 1.498 1.036 1.687"/>
    </g>
</svg>
