<?xml version="1.0" encoding="UTF-8" standalone="no"?>
<svg width="9px" height="14px" viewBox="0 0 9 14" version="1.1" xmlns="http://www.w3.org/2000/svg" xmlns:xlink="http://www.w3.org/1999/xlink">
    <!-- Generator: sketchtool 39.1 (31720) - http://www.bohemiancoding.com/sketch -->
    <title>1D17296E-466C-447C-A441-290AFB0A100F</title>
    <desc>Created with sketchtool.</desc>
    <defs></defs>
    <g id="Collapsible-Code" stroke="none" stroke-width="1" fill="none" fill-rule="evenodd">
        <g id="Collapsed" transform="translate(-1303.000000, -176.000000)" fill="#727272">
            <path d="M1302.63301,179.323171 L1307.49763,184.171135 L1312.42671,179.259325 L1312.42671,179.259719 C1312.59361,179.099316 1312.82102,179 1313.07137,179 C1313.58433,179 1314,179.414605 1314,179.925767 C1314,180.17524 1313.90073,180.40146 1313.73976,180.567775 L1313.74016,180.568169 L1308.16879,186.120015 L1308.16839,186.119621 C1307.99912,186.294212 1307.76221,186.402987 1307.5,186.402987 L1307.49763,186.402987 L1307.49565,186.402987 C1307.23343,186.402987 1306.99653,186.294212 1306.82765,186.119621 L1306.82726,186.120015 L1301.25589,180.568169 L1301.25826,180.565804 C1301.09887,180.399489 1301,180.174452 1301,179.925767 C1301,179.414605 1301.41567,179 1301.92863,179 C1302.21022,179 1302.46255,179.125722 1302.63301,179.323171" id="arrow-left" transform="translate(1307.500000, 182.701494) rotate(-270.000000) translate(-1307.500000, -182.701494) "></path>
        </g>
    </g>
</svg>