<svg width="107" height="53" viewBox="0 0 107 53" xmlns="http://www.w3.org/2000/svg"
     xmlns:xlink="http://www.w3.org/1999/xlink">
  <title>47B24F3A-600B-481F-BAEE-133A26DFD0D7</title>
  <defs>
    <path
      d="M87.917 11.054V3.127A3.128 3.128 0 0 0 84.796 0H48.12A3.128 3.128 0 0 0 45 3.127v36.746A3.128 3.128 0 0 0 48.121 43h36.675c1.717 0 3.12-1.4 3.12-3.127V33.62l5.09-11.283-5.09-11.283z"
      id="a"/>
    <mask id="f" x="-4.5" y="-4.5" width="57" height="52">
      <path fill="#fff" d="M40.5-4.5h57v52h-57z"/>
      <use xlink:href="#a"/>
    </mask>
    <path
      d="M67.917 11.054V3.127A3.128 3.128 0 0 0 64.796 0H28.12A3.128 3.128 0 0 0 25 3.127v36.746A3.128 3.128 0 0 0 28.121 43h36.675c1.717 0 3.12-1.4 3.12-3.127V33.62l5.09-11.283-5.09-11.283z"
      id="b"/>
    <mask id="g" x="-4.5" y="-4.5" width="57.007" height="52">
      <path fill="#fff" d="M20.5-4.5h57.007v52H20.5z"/>
      <use xlink:href="#b"/>
    </mask>
    <path
      d="M42.917 11.054V3.127A3.128 3.128 0 0 0 39.796 0H3.12A3.128 3.128 0 0 0 0 3.127v36.746A3.128 3.128 0 0 0 3.121 43h36.675c1.717 0 3.12-1.4 3.12-3.127V33.62l5.09-11.283-5.09-11.283z"
      id="c"/>
    <mask id="h" x="-4.5" y="-4.5" width="57" height="52">
      <path fill="#fff" d="M-4.5-4.5h57v52h-57z"/>
      <use xlink:href="#c"/>
    </mask>
    <path id="i" d="M26.521 26.464V.482H.48v25.982H26.52z"/>
    <path
      d="M17.53 5.394l4.069 4.06 3.05-3.045c.563-.56.563-1.47 0-2.03l-2.033-2.03a1.44 1.44 0 0 0-2.034 0L17.53 5.394zM2.592 24.355l1.023-4.088 3.073 3.067-4.096 1.021z"
      id="d"/>
    <mask id="k" x="-1" y="-1" width="24.48" height="24.427">
      <path fill="#fff" d="M1.592.928h24.48v24.427H1.592z"/>
      <use xlink:href="#d"/>
    </mask>
    <path id="e" d="M8.376 22.65l12.206-12.18-4.069-4.06L4.308 18.59z"/>
    <mask id="l" x="-1" y="-1" width="18.274" height="18.242">
      <path fill="#fff" d="M3.308 5.409h18.274v18.242H3.308z"/>
      <use xlink:href="#e"/>
    </mask>
  </defs>
  <g fill="none" fill-rule="evenodd">
    <g opacity=".5">
      <g transform="translate(5 5)">
        <use fill="#959798" xlink:href="#a"/>
        <use stroke="#FFF" mask="url(#f)" stroke-width="9" xlink:href="#a"/>
      </g>
      <g transform="translate(5 5)">
        <use fill="#959798" xlink:href="#b"/>
        <use stroke="#FFF" mask="url(#g)" stroke-width="9" xlink:href="#b"/>
      </g>
      <g transform="translate(5 5)">
        <use fill="#959798" xlink:href="#c"/>
        <use stroke="#FFF" mask="url(#h)" stroke-width="9" xlink:href="#c"/>
      </g>
    </g>
  </g>
</svg>
