<svg xmlns="http://www.w3.org/2000/svg" xmlns:xlink="http://www.w3.org/1999/xlink" width="17" height="10" viewBox="0 0 17 10">
    <defs>
        <path id="a" d="M0 15.98h8.864V0H0z"/>
    </defs>
    <g fill="none" fill-rule="evenodd" transform="rotate(90 8 8.5)">
        <mask id="b" fill="#fff">
            <use xlink:href="#a"/>
        </mask>
        <path fill="#FFF" d="M8.045 15.98a.81.81 0 0 1-.572-.237L.245 8.581a.832.832 0 0 1 0-1.182L7.473.236A.812.812 0 0 1 8.63.248c.316.327.31.85-.012 1.17L1.988 7.99l6.63 6.57c.323.32.328.845.012 1.171a.812.812 0 0 1-.585.249" mask="url(#b)"/>
    </g>
</svg>
