<?xml version="1.0" encoding="UTF-8" standalone="no"?>
<svg width="19px" height="19px" viewBox="0 0 19 19" version="1.1" xmlns="http://www.w3.org/2000/svg" xmlns:xlink="http://www.w3.org/1999/xlink">
    <!-- Generator: sketchtool 40.3 (33839) - http://www.bohemiancoding.com/sketch -->
    <title>CE00DF4C-288D-45F6-BBA4-96F80D947637</title>
    <desc>Created with sketchtool.</desc>
    <defs></defs>
    <g id="Error-Handler" stroke="none" stroke-width="1" fill="none" fill-rule="evenodd">
        <g id="Flogo_ErrorHandler_Slideup" transform="translate(-58.000000, -790.000000)" fill="#FFFFFF">
            <g id="Group-8" transform="translate(0.000000, 771.000000)">
                <g id="Group-9" transform="translate(39.000000, 0.000000)">
                    <g id="error-icon" transform="translate(19.000000, 19.000000)">
                        <path d="M18.3383393,2.73421465 L11.7609874,9.07811124 L18.3383393,15.4220078 C18.6390142,15.7120106 18.8250789,16.1125557 18.8250789,16.5547247 C18.8250789,17.4390626 18.0808201,18.1569048 17.1639385,18.1569048 C16.7062052,18.1569048 16.2902126,17.9774443 15.9895377,17.6867591 L9.41289321,11.3435449 L2.83554122,17.6867591 C2.53486632,17.9774443 2.11958121,18.1569048 1.66114042,18.1569048 C0.744258824,18.1569048 0,17.4390626 0,16.5547247 C0,16.1125557 0.186064706,15.7120106 0.486739611,15.4220078 L7.0640916,9.07811124 L0.486739611,2.73421465 C0.186064706,2.44421185 0,2.04434916 0,1.60218019 C0,0.717159871 0.744258824,0 1.66114042,0 C2.11958121,0 2.53486632,0.179460558 2.83554122,0.46946336 L9.41289321,6.81267759 L15.9895377,0.46946336 C16.2902126,0.179460558 16.7062052,0 17.1639385,0 C18.0808201,0 18.8250789,0.717159871 18.8250789,1.60218019 C18.8250789,2.04434916 18.6390142,2.44421185 18.3383393,2.73421465" id="Combined-Shape"></path>
                    </g>
                </g>
            </g>
        </g>
    </g>
</svg>