<?xml version="1.0" encoding="UTF-8" standalone="no"?>
<svg width="32px" height="32px" viewBox="0 0 32 32" version="1.1" xmlns="http://www.w3.org/2000/svg" xmlns:xlink="http://www.w3.org/1999/xlink">
    <!-- Generator: sketchtool 40 (33762) - http://www.bohemiancoding.com/sketch -->
    <title>C9496A70-1180-4135-A506-83842B83E211</title>
    <desc>Created with sketchtool.</desc>
    <defs></defs>
    <g id="All-Screens" stroke="none" stroke-width="1" fill="none" fill-rule="evenodd">
        <g id="Flow-instructions-1" transform="translate(-293.000000, -321.000000)" fill="#FFFFFF">
            <g id="step1" transform="translate(293.000000, 321.000000)">
                <path d="M31.1111111,16 C31.1111111,7.65436378 24.3456362,0.888888889 16,0.888888889 C7.65436378,0.888888889 0.888888889,7.65436378 0.888888889,16 C0.888888889,24.3456362 7.65436378,31.1111111 16,31.1111111 C24.3456362,31.1111111 31.1111111,24.3456362 31.1111111,16 Z M2.66666667,16 C2.66666667,8.63620334 8.63620334,2.66666667 16,2.66666667 C23.3637967,2.66666667 29.3333333,8.63620334 29.3333333,16 C29.3333333,23.3637967 23.3637967,29.3333333 16,29.3333333 C8.63620334,29.3333333 2.66666667,23.3637967 2.66666667,16 Z" id="Oval"></path>
                <path d="M12.384,23.1111111 L20.064,23.1111111 L20.064,21.6604444 L17.248,21.6604444 L17.248,9.50044444 L15.904,9.50044444 C15.1573333,9.94844444 14.2613333,10.2897778 13.024,10.5031111 L13.024,11.6337778 L15.4986667,11.6337778 L15.4986667,21.6604444 L12.384,21.6604444 L12.384,23.1111111 Z" id="1"></path>
            </g>
        </g>
    </g>
</svg>