<?xml version="1.0" encoding="UTF-8" standalone="no"?>
<svg id="Layer_1" viewBox="0 0 400 270" xmlns="http://www.w3.org/2000/svg" data-name="Layer 1">
  <defs>
    <style>.flynn-color-teal{fill:#3fbfbb;}.flynn-color-wing-4{fill:#ceece9;}.flynn-color-wing-1{fill:#99d9d5;}.flynn-color-wing-2{fill:#bde6e3;}.flynn-color-wing-3{fill:#dff2f0;}.flynn-color-cream{fill:#ead7c5;}.flynn-color-bright-yellow{fill:#fbeb34;}.flyn-color-yellow{fill:#ffcf2b;}.flynn-color-transparent{fill:none;}.flynn-color-red{fill:#f7323f;}.flynn-color-light-orange{fill:#fbb475;}.flynn-color-white{fill:#fff;}.flynn-color-light-gray{fill:#dbd9d6;}.flynn-color-dark-gray{fill:#2e2a25;}.flyn-color-brown{fill:#7b2e00;}

      @keyframes flynn-fly {
      from {
      transform: translateY(0);
      }
      to {
      transform: translateY(14px);
      }
      }

      @keyframes flynn-shake {
      from{
      transform: rotate(-0.8deg);
      }
      }

      @keyframes flynn-wings {
      from {}
      to {
      transform: translateX(-20px) translateY(10px) rotate(-4deg);
      }
      }


      .flynn {
      animation: 1.1s ease-in-out 0s infinite alternate both running flynn-fly;
      /* @keyframes duration | timing-function | delay |
      iteration-count | direction | fill-mode | play-state | name */
      }

      .flynn-tail {
      animation: .7s ease-in-out 0s infinite alternate both running flynn-shake;
      }

      .flynn-wing-front,
      .flynn-wing-behind {
      animation: .6s ease-in-out .1s infinite alternate both running flynn-wings;
      }

      .flynn-animatable {
      animation-play-state: paused;
      }

      .flynn:hover,
      .flynn:hover .flynn-animatable {
      animation-play-state: running;
      }

    </style>
  </defs>
  <g class="flynn-wrapper" transform="scale(0.95) translate(0,14)">
    <g class="flynn flynn-animatable">
        <path class="flynn-color-teal flynn-tail flynn-animatable" d="m288.51 243.34c-0.4167-0.18952-42.605-14.542-42.605-14.542s-3.5988-0.3799-1.6984 3.9546a21.148 21.148 0 0 0 4.3494 5.8844c-2.0514-1.2448-4.0227-2.4492-5.7499-3.5176a31.133 31.133 0 0 0 4.325 6.5966c0.53839 0.726 14.611 10.155 18.237 12.39 3.6257 2.2345 6.7648 1.35 7.6722 0.6771 0.90761-0.67291 0.05326-1.446-0.23946-1.651s-5.2659-2.9834-5.2659-2.9834-0.57087-0.2487-6.9798-4.1965c5.2297 2.2957 11.517 4.9451 14.319 6.0259 5.091 1.964 8.5199 1.3338 9.5053 0.27338 0.98525-1.0605-0.27223-1.8335-0.68894-2.0232s-2.0508-0.82317-2.0508-0.82317-3.2198-1.2133-22.771-9.7705c23.5 9.5844 31.604 9.0362 32.234 6.6574s-2.16-2.77-2.58-2.96z"/>
        <path class="flynn-color-wing-4 flynn-wing-part flynn-wing-behind flynn-animatable" d="m224.86 197.69s22.756-43.151 31.204-77.278c13.778-55.664 10.735-84.724 13.365-85.101 2.8451-0.24162 8.6305 1.6697 12.872 14.038s3.6434 36.528-3.1935 61.389c-3.32 12.06-16.21 47.66-54.25 86.95z"/>
        <g class="flynn-wing-front flynn-animatable">
          <path class="flynn-color-teal flynn-wing-part flynn-wing-front-part-1" d="m222.04 197.69s40.56-45.23 77.39-110 c21.17-37.062 39.96-75.425 42.04-78.603s10.786-19.54 15.623 0.1862c14.215 57.973-42.668 123.27-67 144.18a306.09 306.09 0 0 1 -68.05 43.94z"/>
          <path class="flynn-color-wing-1 flynn-wing-part flynn-wing-front-part-2" d="m221.72 195.99s34.352-10.052 88.507-56.209c31.13-26.54 53.61-51.879 65.52-63.001 3.4358-3.2084 16.076-14.112 14.025 5.2457-6.0276 56.889-79.141 94.102-107.88 105.05-39.51 15.04-60.18 8.91-60.18 8.91z"/>
          <path class="flynn-color-wing-2 flynn-wing-part flynn-wing-front-part-3" d="m237.85 197.49s29.035-2.5376 53.109-12.883c31.704-13.624 87.44-46.829 93-41.452 3.3184 3.2088-0.62529 16.992-18.73 29.632-41.42 28.91-116.13 34.73-127.38 24.7z"/>
          <path class="flynn-color-wing-3 flynn-wing-part flynn-wing-front-part-4" d="m229.8 193.32s2.7448 7.6047 27.936 8.526c34.484 1.2611 98.752-9.311 101.8-2.2007 1.8166 4.2436-7.1572 15.424-28.744 20.066-49.4 10.61-94.52-12.79-101-26.4z"/>
        </g>
        <path class="flynn-color-cream chest" d="m216.22 229.88c-3.1808-2.583-15.128-41.798-18.897-51.458l-82.856-6.1027c38.602 3.1786 39.157 24.567 64.061 55.354h0.07722c11.114 15.703 25.881 20.659 43.835 20.659 12.763 0 19.225-2.7466 29.303-9.1367-7.66-1.07-27.7-2.96-35.52-9.31z"/>
        <path class="flynn-color-bright-yellow back" d="m252.13 207.05a57.9 57.9 0 0 0 -9.5509 -9.797 52.128 52.128 0 0 0 -6.4951 -4.4968 25.619 25.619 0 0 1 -3.7179 -10.325 48.55 48.55 0 0 0 -9.1886 -22.073 53.86 53.86 0 0 0 -44.206 -23.039c-21.454 0-34.316 13.931-43.001 32.07a31.077 31.077 0 0 1 3.2777 0.95567 219.25 219.25 0 0 1 56.16 24.606c-4.3465 9.999 3.4268 26.392 17.517 37.834 7.8274 6.3568 19.492 9.1195 27.227 9.3643 11.304 0.35782 20.657-4.6059 22.456-8.9664-0.65-8.97-2.05-15.07-10.48-26.13z"/>
        <path class="flyn-color-yellow head" d="m214.84 150.84a53.708 53.708 0 0 0 -29.629 -13.298c7.2838-3.7307 14.256-7.3076 14.397-7.4001 0.29719-0.19486 2.392-0.75172 1.6603-2.7143s-6.9587-1.7563-23.83 8.3051c13.975-8.8649 16.297-10.159 16.297-10.159s1.1766-0.6719 1.4737-0.86676a1.0817 1.0817 0 0 0 0.30975 -1.7705c-0.86243-0.81638-3.5395-1.0665-7.2063 1.0182-2.0182 1.1472-6.5231 3.9113-10.26 6.2881 4.4598-3.8739 4.868-4.1316 4.868-4.1316s3.4908-2.7645 3.6919-2.9624a0.86583 0.86583 0 0 0 0.00722 -1.4178c-0.76226-0.49494-3.2455-0.98411-5.7684 1.2083s-13.668 13.894-14.408 15.7c-12.57 1.0723-32.354 13.683-30.479 30.745 3.004 0.72747 0.80527 0.25028 3.7618 1.0945 0 0 12.896 4.272 15.864 5.7036l7.8583 3.1438a37.282 37.282 0 0 1 -1.0101 -9.1501c0.11735-4.3837 7.3746-20.558 24.282-23.611a54.392 54.392 0 0 1 6.2131 -0.36879 53.718 53.718 0 0 1 21.91 4.65z"/>
        <path class="flyn-color-yellow marks" d="m232.88 190.14a48.546 48.546 0 0 1 -7.9547 26.161 49.043 49.043 0 0 1 -14.4 14.29q1.2839 1.1969 2.5477 2.4152a53.862 53.862 0 0 0 19.816 -41.767c-0.01-0.37-0.01-0.74-0.02-1.1z"/>
        <path class="flynn-color-transparent" d="m204.08 222.4c-0.1888-0.15-0.37889-0.29907-0.56826-0.44861 0.11951 0.13885 0.23787 0.27857 0.36128 0.4144 0.07 0 0.14 0.02 0.21 0.03z"/>
        <path class="flynn-color-red" d="m184.89 186.81"/>
        <path class="flynn-color-light-orange cheeks" d="m177.17 186.93s7.8434-11.882 14.523-13.56 10.534-1.4295 14.151 2.9644 4.0668 11.739 3.2999 15.861c-4.2697-1.0397-7.5843-2.5968-11.757-2.8065s-18.738 0.27006-18.738 0.27006z"/>
        <path class="flynn-color-white eye-left" d="m142.68 168.89a10.413 10.413 0 1 1 0.16585 -14.725 10.413 10.413 0 0 1 -0.16585 14.725"/>
        <path class="flynn-color-light-gray" d="m130.24 152.4a10.386 10.386 0 0 1 4.425 -1.3429 9.2088 9.2088 0 0 0 -7.6533 8.0766c-0.96029 7.1699 6.0459 12.507 8.6107 12.721a10.417 10.417 0 0 1 -5.3824 -19.455"/>
        <path class="flynn-color-dark-gray" d="m143.28 160.15a5.3285 5.3285 0 1 1 -6.7556 -3.3387 5.3285 5.3285 0 0 1 6.7556 3.3387"/>
        <path class="flynn-color-white" d="m141.9 160.2a1.7874 1.7874 0 1 1 -2.2661 -1.1201 1.7876 1.7876 0 0 1 2.2661 1.1201"/>
        <path class="flyn-color-brown" d="m186.19 201.59l-18.191-12.998-60.891-16.846a0.97816 0.97816 0 0 0 -1.0229 1.5558c23.915 4.7092 36.848 13.308 51.554 25.434 4.77 4.87 17.94 8.5 28.55 2.85z"/>
        <path class="flynn-color-red" d="m196.42 191.05c-0.52482-4.7278-4.0984 1.4826-19.263-6.1721-0.70668-0.3747-2.1785-1.1313-2.1935-1.1393-0.01054-0.00577-20.695-9.191-37.275-13.926q-4.1587-1.1876-8.3844-2.2111a216.67 216.67 0 0 0 -129.31 8.65 216.75 216.75 0 0 1 125.37 3.087q4.5108 1.4928 8.9329 3.1744c10.205 3.8872 19.514 7.3841 31.53 15.502a51.707 51.707 0 0 0 8.4389 4.699 14.589 14.589 0 0 0 10.11 -0.32779c6.31-2.7 12.59-6.38 12.04-11.33z"/>
        <path class="flynn-color-white" d="m189.08 184.66a16.848 16.848 0 1 1 0 -23.826 16.848 16.848 0 0 1 0 23.826"/>
        <path class="flynn-color-light-gray" d="m160.87 168.49a16.803 16.803 0 0 1 3.4513 -6.638 14.899 14.899 0 0 0 0.6872 17.989c7.2083 9.2207 21.308 7.1526 24.456 4.4275a16.854 16.854 0 0 1 -28.594 -15.778"/>
        <path class="flyn-color-brown" d="m184.89 195.49c-4.8048 2.5653-13.811 1.4845-18.877 0.76514-3.2966-0.46795-8.7656-3.5861-12.141-5.3756 0.03017 0.39737 8.932 7.3753 9.4282 7.7685 1.2461 0.98714 4.3501 1.9624 7.6168 1.9971 4.2006 0.045 8.3389-0.15531 17.61-5.1551 1.46-0.75 0.93-2.27-3.64 0z"/>
        <path class="flynn-color-dark-gray" d="m189.96 170.57a8.8312 8.8312 0 1 1 -11.196 -5.5335 8.831 8.831 0 0 1 11.196 5.5335"/>
        <path class="flynn-color-white" d="m187.66 170.65a2.9623 2.9623 0 1 1 -3.7557 -1.8562 2.9622 2.9622 0 0 1 3.7557 1.8562"/>
    </g>
    <g class="flynn-tm-mark">
      <path class="flynn-color-teal" d="m377.13 32.519v6.5122h-0.99v-6.512h-2.6157v-0.957h6.2255v0.95711h-2.6186z"/>
      <path class="flynn-color-teal" d="m387.37 32.817l-2.2692 6.106h-1.0167l-2.282-6.1174-0.08386 6.2254h-0.991l0.24985-7.4693h1.3519l2.2933 6.1429 2.282-6.1429h1.3263l0.23988 7.4693h-1.028z"/>
    </g>
  </g>
</svg>
