<?xml version="1.0" encoding="UTF-8" standalone="no"?>
<svg width="30px" height="31px" viewBox="0 0 30 31" version="1.1" xmlns="http://www.w3.org/2000/svg" xmlns:xlink="http://www.w3.org/1999/xlink">
    <!-- Generator: sketchtool 3.6.1 (26313) - http://www.bohemiancoding.com/sketch -->
    <title>91941EEC-FEDF-4909-81C9-580B64CEFE21</title>
    <desc>Created with sketchtool.</desc>
    <defs></defs>
    <g id="Spec" stroke="none" stroke-width="1" fill="none" fill-rule="evenodd">
        <g id="Flogo_Store" transform="translate(-591.000000, -515.000000)">
            <g id="Group-3" transform="translate(253.000000, 266.000000)">
                <g id="addtile-1-copy-4" transform="translate(312.000000, 230.268519)">
                    <g id="adp-icon-2" transform="translate(26.000000, 19.290123)">
                        <ellipse id="icon-bg" fill="#79B8DC" cx="14.9692308" cy="15" rx="14.9692308" ry="15"></ellipse>
                        <g id="Group-2-Copy" transform="translate(5.488718, 5.610111)">
                            <path d="M11.9753846,5.192 L10.5438272,4.682 C10.4450303,4.3385 10.3083113,4.011 10.139159,3.7045 L10.7918174,2.329 L9.65166103,1.1865 L8.27898256,1.84 C7.97311128,1.6705 7.6457841,1.5335 7.30348769,1.4345 L6.79403487,0 L5.18134974,0 L4.67189692,1.4345 C4.32960051,1.5335 4.00227333,1.67 3.69640205,1.84 L2.32372359,1.186 L1.18356718,2.3285 L1.83622564,3.7045 C1.66707333,4.011 1.52985538,4.3385 1.43155744,4.682 L-8.52651283e-14,5.192 L-8.52651283e-14,6.808 L1.43155744,7.318 C1.52985538,7.6615 1.66707333,7.989 1.83622564,8.2955 L1.18356718,9.671 L2.32372359,10.814 L3.69640205,10.16 C4.00227333,10.3295 4.32960051,10.4665 4.67189692,10.5655 L5.18134974,12 L6.79403487,12 L7.30348769,10.5655 C7.64628308,10.4665 7.97311128,10.3295 8.27898256,10.16 L9.65166103,10.814 L10.7918174,9.671 L10.139159,8.2955 C10.3083113,7.989 10.4450303,7.6615 10.5438272,7.318 L11.9753846,6.808 L11.9753846,5.192 Z M5.98769231,8 C4.88545795,8 3.99179487,7.1045 3.99179487,6 C3.99179487,4.8955 4.88545795,4 5.98769231,4 C7.08992667,4 7.98358974,4.8955 7.98358974,6 C7.98358974,7.1045 7.08992667,8 5.98769231,8 Z" id="gear-icon" stroke="#FFFFFF" stroke-width="1.5"></path>
                            <path d="M20.3179093,12.5139496 L20.3179093,11.3881363 L19.32063,11.0328364 C19.2518041,10.7935314 19.1565603,10.565373 19.0387221,10.3518447 L19.4933897,9.39357976 L18.6991119,8.59763812 L17.74285,9.05290977 C17.529768,8.93482477 17.301739,8.83938145 17.0632818,8.77041145 L16.7083769,7.77104316 L15.5849169,7.77104316 L15.230012,8.77041145 C14.9915549,8.83938145 14.7635259,8.93447644 14.5504439,9.05290977 L13.594182,8.59728979 L12.7999041,9.39323142 L13.2545717,10.3518447 C13.1367336,10.565373 13.0411421,10.7935314 12.9726639,11.0328364 L11.9753846,11.3881363 L11.9753846,12.5139496 L12.9726639,12.8692496 C13.0411421,13.1085546 13.1367336,13.3367129 13.2545717,13.5502413 L12.7999041,14.5085062 L13.594182,15.3047962 L14.5504439,14.8491762 C14.7635259,14.9672612 14.9915549,15.0627045 15.230012,15.1316745 L15.5849169,16.1310428 L16.7083769,16.1310428 L17.0632818,15.1316745 C17.3020866,15.0627045 17.529768,14.9672612 17.74285,14.8491762 L18.6991119,15.3047962 L19.4933897,14.5085062 L19.0387221,13.5502413 C19.1565603,13.3367129 19.2518041,13.1085546 19.32063,12.8692496 L20.3179093,12.5139496 Z M16.1466469,13.3443763 C15.3787871,13.3443763 14.7562262,12.7205113 14.7562262,11.951043 C14.7562262,11.1815747 15.3787871,10.5577097 16.1466469,10.5577097 C16.9145068,10.5577097 17.5370677,11.1815747 17.5370677,11.951043 C17.5370677,12.7205113 16.9145068,13.3443763 16.1466469,13.3443763 Z" id="gear-icon" fill="#FFFFFF"></path>
                        </g>
                    </g>
                </g>
            </g>
        </g>
    </g>
</svg>