<?xml version="1.0" encoding="UTF-8" standalone="no"?>
<svg width="23px" height="23px" viewBox="0 0 23 23" version="1.1" xmlns="http://www.w3.org/2000/svg" xmlns:xlink="http://www.w3.org/1999/xlink">
    <!-- Generator: sketchtool 3.6.1 (26313) - http://www.bohemiancoding.com/sketch -->
    <title>7C081791-7085-47EF-9ABB-F48E6C87AD0D</title>
    <desc>Created with sketchtool.</desc>
    <defs></defs>
    <g id="Spec" stroke="none" stroke-width="1" fill="none" fill-rule="evenodd">
        <g id="Flogo_Store" transform="translate(-1087.000000, -384.000000)" fill="#D8D8D8">
            <g id="Group-3" transform="translate(253.000000, 266.000000)">
                <g id="addtile-1" transform="translate(312.000000, 96.202160)">
                    <path d="M533.5,44.367284 C527.149,44.367284 522,39.4010417 522,33.275463 C522,27.1498843 527.149,22.183642 533.5,22.183642 C539.851,22.183642 545,27.1498843 545,33.275463 C545,39.4010417 539.851,44.367284 533.5,44.367284 L533.5,44.367284 Z M539.557,29.3344907 C538.968,28.7895448 538.014,28.7895448 537.425,29.3344907 L532.064,34.2447917 L530.533,32.8703704 C529.944,32.3263889 528.99,32.3263889 528.401,32.8703704 C527.812,33.4162809 527.812,34.298804 528.401,34.84375 L530.998,37.2038966 C531.587,37.7488426 532.541,37.7488426 533.13,37.2038966 L539.557,31.3078704 C540.145,30.7629244 540.145,29.8794367 539.557,29.3344907 L539.557,29.3344907 Z" id="Checked-Circle-Icon"></path>
                </g>
            </g>
        </g>
    </g>
</svg>