<?xml version="1.0" encoding="UTF-8" standalone="no"?>
<svg width="152px" height="27px" viewBox="0 0 152 27" version="1.1" xmlns="http://www.w3.org/2000/svg" xmlns:xlink="http://www.w3.org/1999/xlink">
    <!-- Generator: sketchtool 3.6.1 (26313) - http://www.bohemiancoding.com/sketch -->
    <title>Cloud Copy 2 + Imported Layers</title>
    <desc>Created with sketchtool.</desc>
    <defs></defs>
    <g id="Spec" stroke="none" stroke-width="1" fill="none" fill-rule="evenodd">
        <g id="Flogo_Large-flow" transform="translate(-32.000000, -16.000000)" fill="#FFFFFF">
            <g id="Frame">
                <g id="tc-gen-cmpt-header-primary-Profile-dropdown">
                    <g id="Cloud-Copy-2-+-Imported-Layers" transform="translate(32.000000, 13.000000)">
                        <text id="Flogo" font-family=".HelveticaNeueDeskInterface-Regular, .Helvetica Neue DeskInterface" font-size="24.5" font-weight="normal">
                            <tspan x="90" y="24">Flogo</tspan>
                        </text>
                        <g id="Imported-Layers" transform="translate(0.000000, 3.000000)">
                            <path d="M9.51061594,5.05390909 L9.51061594,22.1163158 L6.89337681,22.1163158 L6.89337681,5.05390909 L0.0694166667,5.05390909 L0.0694166667,2.54880861 L16.3345761,2.54880861 L16.3345761,5.05390909 L9.51061594,5.05390909" id="Fill-1"></path>
                            <path d="M19.4489167,2.54880861 L22.0661558,2.54880861 L22.0661558,22.1163158 L19.4489167,22.1163158 L19.4489167,2.54880861 Z" id="Fill-2"></path>
                            <path d="M40.5347174,16.576622 C40.5347174,19.893445 38.3238587,22.1163158 33.3068623,22.1163158 L26.670558,22.1163158 L26.670558,2.54880861 L33.1204493,2.54880861 C37.8255145,2.54880861 39.9120978,4.67801914 39.9120978,7.74633014 C39.9120978,9.74941148 38.7588225,11.2217512 36.5790326,12.0359713 C39.1652029,12.6928421 40.5347174,14.3837225 40.5347174,16.576622 L40.5347174,16.576622 Z M33.3379312,4.9902201 L29.3188659,4.9902201 L29.3188659,11.1268421 L32.9327935,11.1268421 C35.7364457,11.1268421 37.2637899,9.87554067 37.2637899,7.96487081 C37.2637899,6.08666986 35.8930326,4.9902201 33.3379312,4.9902201 L33.3379312,4.9902201 Z M33.1515181,13.5382823 L29.3188659,13.5382823 L29.3188659,19.6749043 L33.5566558,19.6749043 C36.4535145,19.6749043 37.8876522,18.6421435 37.8876522,16.6065933 C37.8876522,14.3525024 35.8930326,13.5382823 33.1515181,13.5382823 L33.1515181,13.5382823 Z" id="Fill-3"></path>
                            <path d="M57.8015362,6.11788995 C56.087779,4.9902201 54.4995399,4.45822967 52.4738514,4.45822967 C48.2360616,4.45822967 45.4013406,7.40166029 45.4013406,12.254512 C45.4013406,17.1073636 48.2671304,20.2068947 52.5359891,20.2068947 C54.6238152,20.2068947 56.6805725,19.3614545 58.050087,18.2974737 L58.4862935,20.9586746 C56.8980543,21.9602153 54.6548841,22.585866 52.4738514,22.585866 C46.7720978,22.585866 42.720721,18.6109234 42.720721,12.3793923 C42.720721,6.14911005 46.8031667,2.07800957 52.4738514,2.07800957 C54.6859529,2.07800957 57.0533986,2.70490909 58.6428804,3.70769856 L57.8015362,6.11788995" id="Fill-4"></path>
                            <path d="M74.6868297,3.4591866 C74.3985109,3.28060766 74.0977645,3.11701435 73.7858333,2.97090431 C71.2406739,7.87495694 66.6151449,13.7081196 60.4958261,17.0274402 C60.8487681,17.8229282 61.2949167,18.5422392 61.823087,19.180378 C67.0849058,15.54511 71.9577428,9.46468421 74.6868297,3.4591866" id="Fill-5"></path>
                            <path d="M73.5546812,2.86600478 C72.2970145,2.3165311 70.8715761,2.02056459 69.3255906,2.02056459 C63.6014674,2.02056459 59.5563043,6.4600622 59.5563043,12.3057129 C59.5563043,13.2922679 59.6606957,14.221378 59.8582935,15.0892967 C65.7141486,12.6903445 70.9163152,7.40290909 73.5546812,2.86600478" id="Fill-6"></path>
                            <path d="M74.9067971,3.59655502 C71.9030616,11.0181962 68.2431522,16.2719139 63.567913,20.7888373 C65.1474529,21.8915311 67.1134891,22.497201 69.3255906,22.497201 C75.0497138,22.497201 79.0936341,18.0264833 79.0936341,12.1808325 C79.0936341,8.30704306 77.4979384,5.30242105 74.9067971,3.59655502" id="Fill-7"></path>
                            <path d="M79.0936341,2.94842584 L79.0936341,2.93344019 C79.0936341,1.55476077 80.2058986,0.392124402 81.6077246,0.392124402 C83.0244638,0.392124402 84.123058,1.53977512 84.123058,2.91970335 L84.123058,2.93344019 C84.123058,4.31336842 83.0095507,5.47600478 81.6077246,5.47600478 C80.1922283,5.47600478 79.0936341,4.32835407 79.0936341,2.94842584 L79.0936341,2.94842584 Z M83.8334964,2.93344019 L83.8334964,2.91970335 C83.8334964,1.68463636 82.8803043,0.668110048 81.6077246,0.668110048 C80.350058,0.668110048 79.3819529,1.69962201 79.3819529,2.93344019 L79.3819529,2.94842584 C79.3819529,4.18224402 80.3363877,5.20001914 81.6077246,5.20001914 C82.8653913,5.20001914 83.8334964,4.16850718 83.8334964,2.93344019 L83.8334964,2.93344019 Z M80.6247065,1.5984689 L81.7817101,1.5984689 C82.3446775,1.5984689 82.7647283,1.87320574 82.7647283,2.41019139 C82.7647283,2.83228708 82.518663,3.09328708 82.170692,3.195689 L82.8504783,4.16850718 L82.2589275,4.16850718 L81.651221,3.28310526 L81.116837,3.28310526 L81.116837,4.16850718 L80.6247065,4.16850718 L80.6247065,1.5984689 L80.6247065,1.5984689 Z M81.7382138,2.87599522 C82.0712717,2.87599522 82.2589275,2.70241148 82.2589275,2.45514833 C82.2589275,2.17916268 82.0712717,2.03430144 81.7382138,2.03430144 L81.116837,2.03430144 L81.116837,2.87599522 L81.7382138,2.87599522 L81.7382138,2.87599522 Z" id="Fill-8"></path>
                        </g>
                    </g>
                </g>
            </g>
        </g>
    </g>
</svg>