<?xml version="1.0" encoding="UTF-8" standalone="no"?>
<svg width="29px" height="43px" viewBox="0 0 29 43" version="1.1" xmlns="http://www.w3.org/2000/svg" xmlns:xlink="http://www.w3.org/1999/xlink">
    <!-- Generator: sketchtool 3.6.1 (26313) - http://www.bohemiancoding.com/sketch -->
    <title>7F23602D-B68A-4AA7-9739-2263655E4D57</title>
    <desc>Created with sketchtool.</desc>
    <defs></defs>
    <g id="Spec" stroke="none" stroke-width="1" fill="none" fill-rule="evenodd">
        <g id="flogo-gen-cmpt-buttons" transform="translate(-330.000000, -562.000000)">
            <g id="menu-btn-copy-3" transform="translate(344.500000, 583.500000) rotate(-270.000000) translate(-344.500000, -583.500000) translate(324.000000, 570.000000)">
                <rect id="tc-gen-cmpt-button-primary-default" stroke="#79B8DC" stroke-width="2" fill="#79B8DC" x="-1.77635684e-14" y="-4.54747351e-13" width="40.0718133" height="26.0869565" rx="5" ry="5"></rect>
                <path d="M20.4773347,8.69565217 C21.6833483,8.69565217 22.6610155,7.72235815 22.6610155,6.52173913 C22.6610155,5.32112011 21.6833483,4.34782609 20.4773347,4.34782609 C19.2713211,4.34782609 18.2936539,5.32112011 18.2936539,6.52173913 C18.2936539,7.72235815 19.2713211,8.69565217 20.4773347,8.69565217 Z M20.4773347,15.2173913 C21.6833483,15.2173913 22.6610155,14.2440973 22.6610155,13.0434783 C22.6610155,11.8428592 21.6833483,10.8695652 20.4773347,10.8695652 C19.2713211,10.8695652 18.2936539,11.8428592 18.2936539,13.0434783 C18.2936539,14.2440973 19.2713211,15.2173913 20.4773347,15.2173913 Z M20.4773347,21.7391304 C21.6833483,21.7391304 22.6610155,20.7658364 22.6610155,19.5652174 C22.6610155,18.3645984 21.6833483,17.3913043 20.4773347,17.3913043 C19.2713211,17.3913043 18.2936539,18.3645984 18.2936539,19.5652174 C18.2936539,20.7658364 19.2713211,21.7391304 20.4773347,21.7391304 Z" id="more" fill="#FFFFFF" transform="translate(20.477335, 13.043478) rotate(-270.000000) translate(-20.477335, -13.043478) "></path>
            </g>
        </g>
    </g>
</svg>