<?xml version="1.0" encoding="UTF-8" standalone="no"?>
<svg width="40px" height="40px" viewBox="0 0 40 40" version="1.1" xmlns="http://www.w3.org/2000/svg" xmlns:xlink="http://www.w3.org/1999/xlink">
    <!-- Generator: sketchtool 3.6.1 (26313) - http://www.bohemiancoding.com/sketch -->
    <title>Group</title>
    <desc>Created with sketchtool.</desc>
    <defs></defs>
    <g id="Spec" stroke="none" stroke-width="1" fill="none" fill-rule="evenodd">
        <g id="flogo-gen-cmpt-addtiles" transform="translate(-160.000000, -141.000000)">
            <g id="add-task-hover" transform="translate(76.000000, 65.000000)">
                <g id="TILE" transform="translate(32.000000, 58.000000)">
                    <g id="Group" transform="translate(52.000000, 18.000000)">
                        <ellipse id="icon-bg-copy" fill="#79B8DC" cx="20" cy="20" rx="20" ry="20"></ellipse>
                        <g transform="translate(20.559932, 21.564902) rotate(-354.000000) translate(-20.559932, -21.564902) translate(9.559932, 6.064902)" stroke="#FFFFFF" stroke-width="2">
                            <path d="M13.7447088,27.6497979 L19.2215605,24.4492788 C19.2215605,24.4492788 19.6042771,21.3887727 18.2377826,17.7578717 C17.6710677,16.2208721 16.7510759,15.9411945 15.6078327,15.9362879 C14.3468306,15.932608 10.6729967,18.1160552 10.6729967,18.1160552 L6.55143336,12.2244276 C6.06567768,11.5424071 5.11624614,11.3841685 4.43422554,11.8699241 C3.75220495,12.3556798 3.5927397,13.3051114 4.07972203,13.9871319 L8.5869354,21.3867873 C8.5869354,21.3867873 5.27122392,20.6499626 4.89054148,22.3369776 C4.43422556,23.965674 6.72772062,24.3259155 7.85011062,24.7024988 C9.02647348,25.097482 13.7447088,27.6497979 13.7447088,27.6497979 Z" id="Fill-1" transform="translate(11.534234, 19.619054) rotate(-336.000000) translate(-11.534234, -19.619054) "></path>
                            <path d="M13.211797,14.4101404 C14.9826111,13.0266719 16.1210493,10.8712446 16.1210493,8.4499208 C16.1210493,4.27512621 12.7367096,0.890786515 8.56191504,0.890786515 C4.38712045,0.890786515 1.00278075,4.27512621 1.00278075,8.4499208 C1.00278075,10.5295069 1.8425453,12.4129555 3.20146513,13.7796573 L3.20146513,13.7796573" id="Oval-410" transform="translate(8.561915, 7.650463) rotate(-5.000000) translate(-8.561915, -7.650463) "></path>
                        </g>
                    </g>
                </g>
            </g>
        </g>
    </g>
</svg>