<?xml version="1.0" encoding="UTF-8" standalone="no"?>
<svg width="46px" height="46px" viewBox="0 0 46 46" version="1.1" xmlns="http://www.w3.org/2000/svg" xmlns:xlink="http://www.w3.org/1999/xlink">
    <!-- Generator: sketchtool 3.6.1 (26313) - http://www.bohemiancoding.com/sketch -->
    <title>1AC5BB23-E922-4F30-9003-6B9AD966054B</title>
    <desc>Created with sketchtool.</desc>
    <defs></defs>
    <g id="Spec" stroke="none" stroke-width="1" fill="none" fill-rule="evenodd">
        <g id="flogo-gen-cmpt-editpanel" transform="translate(-111.000000, -84.000000)">
            <g id="edit-panel" transform="translate(93.000000, 55.000000)">
                <g id="Trigger-bar" transform="translate(2.000000, 0.000000)">
                    <g id="Group-7" transform="translate(16.000000, 29.000000)">
                        <ellipse id="icon-bg" fill="#79b8dc" cx="23" cy="23" rx="23" ry="23"></ellipse>
                        <g id="Group-2-Copy-2" transform="translate(6.900000, 10.350000)">
                            <path d="M18.4,7.96106667 L16.2004333,7.17906667 C16.0486333,6.65236667 15.8385667,6.1502 15.5786667,5.68023333 L16.5814667,3.57113333 L14.8296333,1.8193 L12.7205333,2.82133333 C12.2505667,2.56143333 11.7476333,2.35136667 11.2217,2.19956667 L10.4389333,0 L7.96106667,0 L7.1783,2.19956667 C6.65236667,2.35136667 6.14943333,2.56066667 5.67946667,2.82133333 L3.57036667,1.81853333 L1.81853333,3.57036667 L2.82133333,5.68023333 C2.56143333,6.1502 2.3506,6.65236667 2.19956667,7.17906667 L1.31450406e-13,7.96106667 L1.31450406e-13,10.4389333 L2.19956667,11.2209333 C2.3506,11.7476333 2.56143333,12.2498 2.82133333,12.7197667 L1.81853333,14.8288667 L3.57036667,16.5814667 L5.67946667,15.5786667 C6.14943333,15.8385667 6.65236667,16.0486333 7.1783,16.2004333 L7.96106667,18.4 L10.4389333,18.4 L11.2217,16.2004333 C11.7484,16.0486333 12.2505667,15.8385667 12.7205333,15.5786667 L14.8296333,16.5814667 L16.5814667,14.8288667 L15.5786667,12.7197667 C15.8385667,12.2498 16.0486333,11.7476333 16.2004333,11.2209333 L18.4,10.4389333 L18.4,7.96106667 Z M9.2,12.2666667 C7.50643333,12.2666667 6.13333333,10.8935667 6.13333333,9.2 C6.13333333,7.50643333 7.50643333,6.13333333 9.2,6.13333333 C10.8935667,6.13333333 12.2666667,7.50643333 12.2666667,9.2 C12.2666667,10.8935667 10.8935667,12.2666667 9.2,12.2666667 Z" id="gear-icon" stroke="#FFFFFF" stroke-width="1.5"></path>
                            <path d="M31.2181648,19.9221722 L31.2181648,18.1959926 L29.68586,17.6512206 C29.5801102,17.2843007 29.4337694,16.9344716 29.2527129,16.6070743 L29.9513028,15.1377922 L28.7309067,13.917396 L27.2616246,14.6154519 C26.9342273,14.4343954 26.5838641,14.2880546 26.2174783,14.1823048 L25.6721722,12.65 L23.9459926,12.65 L23.4006865,14.1823048 C23.0343007,14.2880546 22.6839375,14.4338613 22.3565402,14.6154519 L20.8872581,13.916862 L19.666862,15.1372581 L20.3654519,16.6070743 C20.1843954,16.9344716 20.0375206,17.2843007 19.9323048,17.6512206 L18.4,18.1959926 L18.4,19.9221722 L19.9323048,20.4669442 C20.0375206,20.8338641 20.1843954,21.1836932 20.3654519,21.5110905 L19.666862,22.9803726 L20.8872581,24.2013028 L22.3565402,23.5027129 C22.6839375,23.6837694 23.0343007,23.8301102 23.4006865,23.93586 L23.9459926,25.4681648 L25.6721722,25.4681648 L26.2174783,23.93586 C26.5843982,23.8301102 26.9342273,23.6837694 27.2616246,23.5027129 L28.7309067,24.2013028 L29.9513028,22.9803726 L29.2527129,21.5110905 C29.4337694,21.1836932 29.5801102,20.8338641 29.68586,20.4669442 L31.2181648,19.9221722 Z M24.8090824,21.1954432 C23.6292771,21.1954432 22.6727216,20.2388876 22.6727216,19.0590824 C22.6727216,17.8792771 23.6292771,16.9227216 24.8090824,16.9227216 C25.9888876,16.9227216 26.9454432,17.8792771 26.9454432,19.0590824 C26.9454432,20.2388876 25.9888876,21.1954432 24.8090824,21.1954432 Z" id="gear-icon" fill="#FFFFFF"></path>
                        </g>
                    </g>
                </g>
            </g>
        </g>
    </g>
</svg>
