<svg xmlns="http://www.w3.org/2000/svg" width="112" height="110" viewBox="0 0 112 110">
    <path fill="#FEFEFE" fill-rule="evenodd" d="M25.249 92.439L9.854 45.473l.363-10.045L26.37 84.771l-1.121 7.668zM41.78 55.105a40.373 40.373 0 0 1 9.487-1.57c.431-.02.862-.03 1.29-.035-1.218-2.986 1.686-6.297 3.891-7.149.04-.364 1.438-3.064 1.778-3.593.34-.53.813-.57.976-.52.163.05.099.21.072.256-.024.046-.51.73-.51.73s-.06.068-.662 1.002a61.183 61.183 0 0 1 1.52-1.675c.553-.57 1.048-.663 1.247-.56.197.102.079.284.035.336-.042.05-.22.233-.22.233s-.35.356-2.406 2.691c2.514-2.703 3.626-3.066 3.86-2.75.234.317-.114.527-.156.578-.022.024-1.092 1.036-2.21 2.092a10.039 10.039 0 0 1 6.03.854c-.02-.004-.042-.005-.064-.007.736.347 1.43.78 2.063 1.292a9.14 9.14 0 0 1 2.806 3.511l.008.016c.52-3.213 1.19-8.314 1.029-12.473-.419-10.788-2.484-15.885-2.03-16.09.5-.194 1.643-.15 3.051 1.865 1.409 2.015 2.562 6.415 2.626 11.27.014.984-.062 2.802-.504 5.247a133.408 133.408 0 0 0 2.98-10.426c1.88-7.812 3.265-15.733 3.474-16.418.208-.683.924-4.098 2.823-.783 5.584 9.74-1.259 24.528-4.552 29.584-2.056 3.157-4.3 5.819-6.138 7.785 2.318-2.315 5.478-5.952 9.037-11.367 4.225-6.43 6.955-12.189 8.52-14.824.452-.76 2.16-3.394 2.8.215 1.88 10.604-9.352 21.163-13.957 24.646-1.755 1.328-3.332 2.283-4.698 2.974 1.792-.89 4.182-2.23 6.201-3.895C86.28 44.023 94.59 35.1 95.872 35.782c.765.407.772 3.106-1.83 6.34-3.891 4.837-10.861 8.632-15.934 10.338 6.377-1.982 15.477-6.202 16.307-5.182.55.673-.484 3.164-4.13 5.133-4.838 2.613-10.011 3.081-13.872 2.6 1.331 1.163 1.807 2.095 2.29 3.406a1.131 1.131 0 0 1-.056.231c2.37.11 5.204.245 5.253.252.084.01.61-.066.621.398.01.464-1.42.985-6.154.482 3.97.525 4.612.576 4.612.576s.326.029.413.041c.084.014.351.087.228.33-.121.243-.707.537-1.727.449-.561-.05-1.832-.2-2.894-.34 1.362.378 1.477.393 1.477.393s1.04.241 1.104.264c.063.021.258.117.13.285-.13.17-.647.494-1.418.28-.734-.204-3.515-1.093-3.89-1.266-1.17 1.217-2.2 1.903-4.146 2.469-3.235.94-6.153.816-8.975-1.442l-.013.003c-2.052-1.437-3.552-2.824-4.91-3.98a2.496 2.496 0 0 1-.362-.16c-1.808-.785-3.465-1.403-5.348-1.734-.491-.036-.982-.066-1.476-.085-4.206-.16-8.51.342-12.775 1.58a40.415 40.415 0 0 0-9.972 4.424 40.27 40.27 0 0 1 13.356-6.762zm70.22 13.578L28.308 96.747l1.218-8.326L112 61.206V0H98.25l.032.102-10.249 3.382-.919-2.808A2.11 2.11 0 0 0 86.741 0h-3.329a2.152 2.152 0 0 0-.369 2.02l.92 2.808-10.25 3.381-.919-2.807a2.142 2.142 0 0 0-2.705-1.373 2.153 2.153 0 0 0-1.367 2.716l.92 2.809-10.249 3.38-.919-2.807a2.142 2.142 0 0 0-2.705-1.372 2.154 2.154 0 0 0-1.367 2.715l.919 2.809-10.248 3.38-.92-2.806a2.141 2.141 0 0 0-2.704-1.372 2.152 2.152 0 0 0-1.366 2.716L41 19.004l-10.248 3.382-.92-2.807a2.14 2.14 0 0 0-2.704-1.373 2.154 2.154 0 0 0-1.368 2.716l.92 2.807-10.248 3.382-.92-2.807a2.142 2.142 0 0 0-2.705-1.373 2.153 2.153 0 0 0-1.365 2.716l.919 2.807-3.997 1.32.038.112-1.658.497-.564 15.611.102.312L0 48.38v4.53l7.622-2.516 3.373 10.289L.497 64.146a2.1 2.1 0 0 0-.497.248v3.588a2.118 2.118 0 0 0 1.835.25l10.499-3.464 3.372 10.288-10.503 3.467a2.153 2.153 0 0 0-1.366 2.715 2.14 2.14 0 0 0 2.706 1.372l10.503-3.466 3.371 10.288L9.91 92.9a2.154 2.154 0 0 0-1.366 2.715 2.142 2.142 0 0 0 2.705 1.372l10.508-3.468 2.744 8.371 8.129-2.725 2.949 9.006a2.141 2.141 0 0 0 2.705 1.373 2.154 2.154 0 0 0 1.367-2.716l-2.956-9.026 10.233-3.432 2.97 9.076a2.14 2.14 0 0 0 2.706 1.373 2.154 2.154 0 0 0 1.367-2.716l-2.98-9.096 10.234-3.432 2.994 9.146a2.143 2.143 0 0 0 2.705 1.373 2.154 2.154 0 0 0 1.366-2.716l-3-9.166 10.232-3.432 3.017 9.215a2.14 2.14 0 0 0 2.705 1.372 2.15 2.15 0 0 0 1.366-2.714l-3.023-9.235 10.232-3.431 3.04 9.283a2.14 2.14 0 0 0 2.705 1.372 2.153 2.153 0 0 0 1.367-2.714l-3.046-9.305 9.434-3.163 3.193 9.754a2.141 2.141 0 0 0 2.705 1.373 2.155 2.155 0 0 0 1.367-2.716l-3.2-9.774L112 72.55v-3.867z"/>
</svg>
