<?xml version="1.0" encoding="UTF-8" standalone="no"?>
<svg width="32px" height="32px" viewBox="0 0 32 32" version="1.1" xmlns="http://www.w3.org/2000/svg" xmlns:xlink="http://www.w3.org/1999/xlink">
    <!-- Generator: sketchtool 40 (33762) - http://www.bohemiancoding.com/sketch -->
    <title>C2D1E597-33FD-4A7D-8F6B-DDD68605677B</title>
    <desc>Created with sketchtool.</desc>
    <defs></defs>
    <g id="All-Screens" stroke="none" stroke-width="1" fill="none" fill-rule="evenodd">
        <g id="Flow-instructions-4" transform="translate(-293.000000, -499.000000)" fill="#FFFFFF">
            <g id="Group-3" transform="translate(231.000000, 320.000000)">
                <g id="step4" transform="translate(62.000000, 179.000000)">
                    <path d="M31.1111111,16 C31.1111111,7.65436378 24.3456362,0.888888889 16,0.888888889 C7.65436378,0.888888889 0.888888889,7.65436378 0.888888889,16 C0.888888889,24.3456362 7.65436378,31.1111111 16,31.1111111 C24.3456362,31.1111111 31.1111111,24.3456362 31.1111111,16 Z M2.66666667,16 C2.66666667,8.63620334 8.63620334,2.66666667 16,2.66666667 C23.3637967,2.66666667 29.3333333,8.63620334 29.3333333,16 C29.3333333,23.3637967 23.3637967,29.3333333 16,29.3333333 C8.63620334,29.3333333 2.66666667,23.3637967 2.66666667,16 Z" id="Oval"></path>
                    <path d="M12.9173333,17.9484444 L16.096,13.2977778 C16.48,12.6364444 16.864,12.0391111 17.2053333,11.3777778 L17.2906667,11.3777778 C17.248,12.1031111 17.184,13.2764444 17.184,14.0017778 L17.184,17.9484444 L12.9173333,17.9484444 Z M20.704,17.9484444 L18.848,17.9484444 L18.848,9.50044444 L16.8853333,9.50044444 L11.0613333,18.2044444 L11.0613333,19.3564444 L17.184,19.3564444 L17.184,23.1111111 L18.848,23.1111111 L18.848,19.3564444 L20.704,19.3564444 L20.704,17.9484444 Z" id="4"></path>
                </g>
            </g>
        </g>
    </g>
</svg>