<?xml version="1.0" encoding="UTF-8" standalone="no"?>
<svg width="32px" height="32px" viewBox="0 0 32 32" version="1.1" xmlns="http://www.w3.org/2000/svg" xmlns:xlink="http://www.w3.org/1999/xlink">
    <!-- Generator: sketchtool 40 (33762) - http://www.bohemiancoding.com/sketch -->
    <title>4BD98823-B842-4A74-9330-FBD0D558392E</title>
    <desc>Created with sketchtool.</desc>
    <defs></defs>
    <g id="All-Screens" stroke="none" stroke-width="1" fill="none" fill-rule="evenodd">
        <g id="Flow-instructions-2" transform="translate(-293.000000, -380.000000)" fill="#FFFFFF">
            <g id="step2" transform="translate(293.000000, 380.000000)">
                <path d="M31.1111111,16 C31.1111111,7.65436378 24.3456362,0.888888889 16,0.888888889 C7.65436378,0.888888889 0.888888889,7.65436378 0.888888889,16 C0.888888889,24.3456362 7.65436378,31.1111111 16,31.1111111 C24.3456362,31.1111111 31.1111111,24.3456362 31.1111111,16 Z M2.66666667,16 C2.66666667,8.63620334 8.63620334,2.66666667 16,2.66666667 C23.3637967,2.66666667 29.3333333,8.63620334 29.3333333,16 C29.3333333,23.3637967 23.3637967,29.3333333 16,29.3333333 C8.63620334,29.3333333 2.66666667,23.3637967 2.66666667,16 Z" id="Oval"></path>
                <path d="M11.552,23.1111111 L20.3413333,23.1111111 L20.3413333,21.5964444 L16.3946667,21.5964444 C15.6906667,21.5964444 14.8586667,21.6604444 14.112,21.7244444 C17.3333333,18.3537778 19.6586667,15.8151111 19.6586667,13.2551111 C19.6586667,10.8444444 18.1013333,9.24444444 15.584,9.24444444 C13.8133333,9.24444444 12.5973333,10.0764444 11.4666667,11.3137778 L12.4693333,12.3164444 C13.2586667,11.3991111 14.24,10.6737778 15.3706667,10.6737778 C17.0986667,10.6737778 17.952,11.7831111 17.952,13.3404444 C17.952,15.5377778 15.648,17.9911111 11.552,22.0657778 L11.552,23.1111111 Z" id="2"></path>
            </g>
        </g>
    </g>
</svg>