<?xml version="1.0" encoding="UTF-8" standalone="no"?>
<svg width="18px" height="18px" viewBox="0 0 18 18" version="1.1" xmlns="http://www.w3.org/2000/svg" xmlns:xlink="http://www.w3.org/1999/xlink">
    <!-- Generator: sketchtool 39.1 (31720) - http://www.bohemiancoding.com/sketch -->
    <title>7CE0A6F0-23AC-403F-B83E-0419362D2D93</title>
    <desc>Created with sketchtool.</desc>
    <defs></defs>
    <g id="All-Screens" stroke="none" stroke-width="1" fill="none" fill-rule="evenodd">
        <g id="Flow-instructions" transform="translate(-303.000000, -504.000000)">
            <g id="Group-2-Copy-2" transform="translate(304.000000, 505.000000)">
                <g id="step3">
                    <ellipse id="Oval" stroke="#36BFBB" cx="8" cy="8" rx="8" ry="8"></ellipse>
                    <path d="M5.33,11.064 C5.846,11.628 6.626,12.144 7.85,12.144 C9.254,12.144 10.37,11.316 10.37,9.96 C10.37,8.904 9.638,8.232 8.714,8.016 L8.714,7.968 C9.542,7.656 10.106,7.068 10.106,6.144 C10.106,4.908 9.146,4.2 7.814,4.2 C6.914,4.2 6.206,4.608 5.618,5.16 L6.146,5.784 C6.602,5.328 7.142,5.004 7.778,5.004 C8.594,5.004 9.098,5.472 9.098,6.216 C9.098,7.02 8.558,7.644 6.926,7.644 L6.926,8.4 C8.75,8.4 9.374,9.012 9.374,9.924 C9.374,10.776 8.714,11.328 7.79,11.328 C6.89,11.328 6.29,10.896 5.834,10.416 L5.33,11.064 Z" id="3" fill="#36BFBB"></path>
                </g>
            </g>
        </g>
    </g>
</svg>