<?xml version="1.0" encoding="UTF-8" standalone="no"?>
<svg width="18px" height="18px" viewBox="0 0 18 18" version="1.1" xmlns="http://www.w3.org/2000/svg" xmlns:xlink="http://www.w3.org/1999/xlink">
    <!-- Generator: sketchtool 39.1 (31720) - http://www.bohemiancoding.com/sketch -->
    <title>9B833D67-F958-4574-B339-C923C8A76963</title>
    <desc>Created with sketchtool.</desc>
    <defs></defs>
    <g id="All-Screens" stroke="none" stroke-width="1" fill="none" fill-rule="evenodd">
        <g id="Flow-instructions" transform="translate(-303.000000, -444.000000)">
            <g id="Group-2-Copy" transform="translate(304.000000, 445.000000)">
                <g id="step2">
                    <ellipse id="Oval" stroke="#0081CB" cx="8" cy="8" rx="8" ry="8"></ellipse>
                    <path d="M5.498,12 L10.442,12 L10.442,11.148 L8.222,11.148 C7.826,11.148 7.358,11.184 6.938,11.22 C8.75,9.324 10.058,7.896 10.058,6.456 C10.058,5.1 9.182,4.2 7.766,4.2 C6.77,4.2 6.086,4.668 5.45,5.364 L6.014,5.928 C6.458,5.412 7.01,5.004 7.646,5.004 C8.618,5.004 9.098,5.628 9.098,6.504 C9.098,7.74 7.802,9.12 5.498,11.412 L5.498,12 Z" id="2" fill="#0081CB"></path>
                </g>
            </g>
        </g>
    </g>
</svg>