<?xml version="1.0" encoding="UTF-8" standalone="no"?>
<svg width="32px" height="32px" viewBox="0 0 32 32" version="1.1" xmlns="http://www.w3.org/2000/svg" xmlns:xlink="http://www.w3.org/1999/xlink">
    <!-- Generator: sketchtool 40 (33762) - http://www.bohemiancoding.com/sketch -->
    <title>A05B57C9-7552-424C-9027-087980D8D8BF</title>
    <desc>Created with sketchtool.</desc>
    <defs></defs>
    <g id="All-Screens" stroke="none" stroke-width="1" fill="none" fill-rule="evenodd">
        <g id="Flow-instructions-3" transform="translate(-293.000000, -441.000000)" fill="#FFFFFF">
            <g id="Group-5" transform="translate(231.000000, 320.000000)">
                <g id="Group-2-Copy-2" transform="translate(62.000000, 121.000000)">
                    <g id="step3">
                        <path d="M31.1111111,16 C31.1111111,7.65436378 24.3456362,0.888888889 16,0.888888889 C7.65436378,0.888888889 0.888888889,7.65436378 0.888888889,16 C0.888888889,24.3456362 7.65436378,31.1111111 16,31.1111111 C24.3456362,31.1111111 31.1111111,24.3456362 31.1111111,16 Z M2.66666667,16 C2.66666667,8.63620334 8.63620334,2.66666667 16,2.66666667 C23.3637967,2.66666667 29.3333333,8.63620334 29.3333333,16 C29.3333333,23.3637967 23.3637967,29.3333333 16,29.3333333 C8.63620334,29.3333333 2.66666667,23.3637967 2.66666667,16 Z" id="Oval"></path>
                        <path d="M11.2533333,21.4471111 C12.1706667,22.4497778 13.5573333,23.3671111 15.7333333,23.3671111 C18.2293333,23.3671111 20.2133333,21.8951111 20.2133333,19.4844444 C20.2133333,17.6071111 18.912,16.4124444 17.2693333,16.0284444 L17.2693333,15.9431111 C18.7413333,15.3884444 19.744,14.3431111 19.744,12.7004444 C19.744,10.5031111 18.0373333,9.24444444 15.6693333,9.24444444 C14.0693333,9.24444444 12.8106667,9.96977778 11.7653333,10.9511111 L12.704,12.0604444 C13.5146667,11.2497778 14.4746667,10.6737778 15.6053333,10.6737778 C17.056,10.6737778 17.952,11.5057778 17.952,12.8284444 C17.952,14.2577778 16.992,15.3671111 14.0906667,15.3671111 L14.0906667,16.7111111 C17.3333333,16.7111111 18.4426667,17.7991111 18.4426667,19.4204444 C18.4426667,20.9351111 17.2693333,21.9164444 15.6266667,21.9164444 C14.0266667,21.9164444 12.96,21.1484444 12.1493333,20.2951111 L11.2533333,21.4471111 Z" id="3"></path>
                    </g>
                </g>
            </g>
        </g>
    </g>
</svg>