<svg width="198" height="276" xmlns="http://www.w3.org/2000/svg">

 <metadata id="metadata1318">image/svg+xml</metadata>
 <g>
  <title>background</title>
  <rect fill="none" id="canvas_background" height="278" width="200" y="-1" x="-1"/>
 </g>
 <g>
  <title>Layer 1</title>
  <g stroke="null" id="layer1">
   <g stroke="null" id="g8" transform="matrix(0.17296681747055054,0,0,-0.17296681747055054,52.441458835371186,260.9547787558745) ">
    <path stroke="null" fill="currentColor" id="path10" d="m745.301933,311.706631l36,0c0,-105.33333 -17,-182 -51,-230c-34,-48 -77,-72 -129,-72c-42,0 -82.33333,15.66667 -121,47c-38.66667,31.33333 -73.33333,116.33333 -104,255l-86,388l-298,-676l-189,0l428,922c-22.66667,119.3333 -50,207.6667 -82,265c-32,57.3333 -71.66667,86 -119,86c-38,0 -71,-14.3333 -99,-43c-28,-28.6667 -44,-73.6667 -48,-135l-36,0c2,98 21.66667,176.3333 59,235c37.33333,58.6667 84,88.3333 140,89c36,0 70,-14.6667 102,-44c32,-29.3333 60,-80 84,-152c24,-72 61,-220.6667 111,-446l71,-317c28.66667,-131.33333 58.66667,-219 90,-263c31.33333,-44 69.33333,-66.33333 114,-67c74.66667,0 117,52.66667 127,158z"/>
   </g>
  </g>
 </g>
</svg>
