<?xml version="1.0" encoding="UTF-8" standalone="no"?>
<svg width="16px" height="16px" viewBox="0 0 16 16" version="1.1" xmlns="http://www.w3.org/2000/svg" xmlns:xlink="http://www.w3.org/1999/xlink">
    <!-- Generator: sketchtool 40 (33762) - http://www.bohemiancoding.com/sketch -->
    <title>61D91CB0-64B7-45E1-B601-35301ACBDF4E</title>
    <desc>Created with sketchtool.</desc>
    <defs>
        <polygon id="path-1" points="0 15.9994667 16 15.9994667 16 0.000133333333 0 0.000133333333"></polygon>
    </defs>
    <g id="All-Screens" stroke="none" stroke-width="1" fill="none" fill-rule="evenodd">
        <g id="Flogo_LandingPage-Option-2" transform="translate(-254.000000, -293.000000)">
            <g id="link" transform="translate(254.000000, 293.000000)">
                <mask id="mask-2" fill="white">
                    <use xlink:href="#path-1"></use>
                </mask>
                <g id="Clip-2"></g>
                <path d="M9.256,1.15733333 L6.87333333,3.54133333 C7.438,3.508 7.97666667,3.54133333 8.642,3.73 L10.2373333,2.13733333 C11.236,1.136 12.864,1.13733333 13.864,2.13666667 C14.8753333,3.14866667 14.8546667,4.776 13.864,5.76466667 L10.6433333,8.98533333 L10.6413333,8.98666667 C9.68266667,9.94466667 8.05066667,10.0213333 7.01533333,8.98533333 C6.7,8.66933333 6.492,8.29066667 6.378,7.89 L6.322,7.93533333 L5.31066667,8.94533333 C5.49733333,9.316 5.734,9.662 6.036,9.964 C7.53266667,11.4606667 10.0386667,11.5466667 11.6213333,9.964 L14.8426667,6.74333333 C16.3853333,5.19933333 16.3866667,2.702 14.842,1.15866667 C13.2973333,-0.388666667 10.7973333,-0.383333333 9.256,1.15733333 M9.14866667,12.436 L6.742,14.842 C5.198,16.3853333 2.7,16.3853333 1.15666667,14.842 C0.41,14.0966667 0,13.1046667 0,12.05 C0,10.9953333 0.41,10.0033333 1.156,9.25733333 L4.4,6.014 C5.97,4.444 8.476,4.506 9.98466667,6.014 C10.2866667,6.316 10.5246667,6.66266667 10.7106667,7.032 L9.64866667,8.09333333 C9.52866667,7.68466667 9.31533333,7.30066667 9.006,6.992 C8.04066667,6.02666667 6.386,5.98533333 5.38,6.99133333 L5.37933333,6.99266667 L2.13466667,10.236 C1.13466667,11.2353333 1.13466667,12.8633333 2.13466667,13.8626667 C3.146,14.874 4.77333333,14.8546667 5.76266667,13.8626667 L7.37933333,12.2466667 C8.04133333,12.436 8.57333333,12.47 9.14866667,12.436" id="Fill-1" fill="#0081CB" mask="url(#mask-2)"></path>
            </g>
        </g>
    </g>
</svg>