<svg xmlns="http://www.w3.org/2000/svg" width="44" height="28" viewBox="0 0 44 28">
    <g fill="none" fill-rule="evenodd">
        <path fill="#22A9A4" d="M38.512.288l4.645 13.493-4.645 13.493v.068H16.09a.8.8 0 0 1-.8-.8V1.02a.8.8 0 0 1 .8-.8h22.422v.068z"/>
        <path fill="#36BFBB" d="M30.849.288l4.644 13.493-4.644 13.493v.068H8.427a.8.8 0 0 1-.8-.8V1.02a.8.8 0 0 1 .8-.8h22.422v.068z"/>
        <path fill="#9BDFDD" d="M23.882.288l4.645 13.493-4.645 13.493v.068H1.46a.8.8 0 0 1-.8-.8V1.02a.8.8 0 0 1 .8-.8h22.422v.068z"/>
    </g>
</svg>
