<svg xmlns="http://www.w3.org/2000/svg" xmlns:xlink="http://www.w3.org/1999/xlink" width="56" height="100" viewBox="0 0 56 100">
    <defs>
        <path id="a" d="M48 .49H0V61h48z"/>
    </defs>
    <g fill="none" fill-rule="evenodd">
        <path fill="#866AAF" d="M4 0h52v100H4a4 4 0 0 1-4-4V4a4 4 0 0 1 4-4z" opacity=".8"/>
        <g transform="translate(3 19.11)">
            <mask id="b" fill="#fff">
                <use xlink:href="#a"/>
            </mask>
            <g fill="#FEFEFE" mask="url(#b)">
                <path d="M38.282 36.796l-.513 2.096-2.235 9.119-12.306-3.035 1.49-6.084.514-2.096 2.231-9.105 12.306 3.035-1.487 6.07zm-7.894 12.42a1.43 1.43 0 1 1-2.779-.68 1.43 1.43 0 1 1 2.779.68zm1.814-22.927a.903.903 0 0 1 1.091-.666l2.555.625a.906.906 0 0 1-.428 1.76l-2.554-.624a.906.906 0 0 1-.664-1.095zm15.537 8.112a8.59 8.59 0 0 1-5.948 2.395h-.9l1.945-7.932a2.551 2.551 0 0 0-1.857-3.076l-12.305-3.036a2.542 2.542 0 0 0-3.067 1.863l-2.984 12.181H13.88c-5.95 0-10.792-4.857-10.792-10.828 0-5.546 4.134-10.169 9.618-10.754l1.114-.119.517-.997c2.426-4.672 7.187-7.574 12.425-7.574 6.667 0 12.442 4.76 13.73 11.32l.31 1.574 1.596.11a8.606 8.606 0 0 1 5.34 2.365v-2.68a10.705 10.705 0 0 0-5.196-1.775c-1.46-7.431-7.966-13.01-15.78-13.01-6.205 0-11.593 3.532-14.277 8.702C6.024 13.82 1 19.312 1 25.968c0 7.13 5.775 12.924 12.881 12.924h8.227l-1.946 7.946a2.551 2.551 0 0 0 1.856 3.076l7.154 1.765h7.981a2.5 2.5 0 0 0 .237-.591l2.988-12.196h1.413c2.2 0 4.245-.667 5.948-1.807V34.4z"/>
                <path d="M21.096 17.027c1.706-1.498 3.807-2.38 6.087-2.508.315-.024.533-.266.494-.586.005-.158-.07-.244-.145-.33a.624.624 0 0 0-.487-.23c-2.517.132-4.856 1.124-6.725 2.765a11.17 11.17 0 0 0-3.622 6.375c-.038.286.159.62.47.702.31.082.579-.104.643-.413a10.04 10.04 0 0 1 3.285-5.775M22.852 24.303c.31.081.632-.099.669-.385.195-.982.674-1.86 1.405-2.501a4.182 4.182 0 0 1 2.578-1.049.55.55 0 0 0 .52-.609.642.642 0 0 0-.143-.33.626.626 0 0 0-.489-.23c-1.206.097-2.348.543-3.242 1.328-.92.81-1.512 1.886-1.742 3.102-.065.31.158.62.444.674"/>
                <path d="M19.994 23.823c.313.03.606-.127.67-.437a7.184 7.184 0 0 1 2.36-4.15 7.306 7.306 0 0 1 4.359-1.802c.315-.023.533-.266.494-.585a.638.638 0 0 0-.145-.33.625.625 0 0 0-.487-.23 8.342 8.342 0 0 0-4.997 2.058 8.23 8.23 0 0 0-2.697 4.75.632.632 0 0 0 .443.726"/>
            </g>
        </g>
    </g>
</svg>
