<svg xmlns="http://www.w3.org/2000/svg" width="56" height="100" viewBox="0 0 56 100">
    <g fill="none" fill-rule="evenodd">
        <path fill="#899BCF" d="M4 0h52v100H4a4 4 0 0 1-4-4V4a4 4 0 0 1 4-4z" opacity=".8"/>
        <path fill="#FFF" d="M15.258 65.572L8.655 45.26l.156-4.344 6.928 21.34-.481 3.316zm7.09-16.146a17.184 17.184 0 0 1 4.623-.694c-.523-1.292.722-2.724 1.668-3.092.018-.158.617-1.325.763-1.554.145-.229.348-.246.418-.225.07.021.043.091.031.11-.01.02-.219.316-.219.316s-.026.03-.284.434c.236-.27.522-.59.652-.724.238-.247.45-.287.535-.243.085.044.034.123.015.145a3.4 3.4 0 0 1-.094.101s-.15.154-1.032 1.164c1.078-1.169 1.555-1.326 1.656-1.19.1.138-.05.229-.068.251-.009.01-.468.448-.947.904a4.273 4.273 0 0 1 2.586.37l-.027-.003c.315.15.613.337.884.558.51.389.927.905 1.204 1.52l.003.006c.223-1.39.51-3.596.441-5.394-.18-4.666-1.065-6.87-.87-6.96.215-.083.704-.064 1.309.807.604.872 1.098 2.775 1.126 4.875.005.425-.027 1.212-.216 2.269a58.07 58.07 0 0 0 1.277-4.51c.807-3.378 1.401-6.804 1.49-7.1.09-.295.397-1.772 1.211-.339 2.395 4.213-.54 10.609-1.952 12.795a24.89 24.89 0 0 1-2.633 3.367c.995-1.001 2.35-2.574 3.876-4.916 1.812-2.78 2.983-5.271 3.654-6.411.194-.329.927-1.468 1.201.093.807 4.586-4.01 9.153-5.986 10.66a13.28 13.28 0 0 1-2.015 1.285c.769-.385 1.794-.964 2.66-1.685 2.145-1.783 5.71-5.642 6.26-5.347.327.176.33 1.343-.786 2.742-1.669 2.092-4.658 3.733-6.834 4.47 2.735-.856 6.638-2.681 6.994-2.24.236.29-.208 1.368-1.771 2.22-2.075 1.13-4.294 1.332-5.95 1.124.571.503.775.906.982 1.473a.493.493 0 0 1-.023.1c1.016.048 2.231.106 2.253.109.036.005.261-.028.266.172.004.2-.61.426-2.64.209 1.703.227 1.978.249 1.978.249s.14.012.177.018c.036.005.151.037.099.142-.053.105-.304.232-.741.194a36.2 36.2 0 0 1-1.241-.147c.584.164.633.17.633.17s.446.105.473.115c.028.009.111.05.056.123-.056.073-.277.213-.608.12-.315-.087-1.507-.472-1.669-.547-.5.527-.943.823-1.777 1.068-1.388.407-2.64.353-3.85-.624l-.005.002c-.88-.622-1.524-1.222-2.106-1.721a1.066 1.066 0 0 1-.156-.07c-.775-.34-1.486-.606-2.293-.75a17.135 17.135 0 0 0-6.112.646 17.262 17.262 0 0 0-4.277 1.914 17.218 17.218 0 0 1 5.728-2.924zm30.116 5.872L16.57 67.435l.523-3.6 35.371-11.77V23.863l-10.28 3.237-.393-1.215a.915.915 0 0 0-.16-.292h-1.428a.937.937 0 0 0-.158.873l.394 1.215-4.395 1.462-.395-1.214a.917.917 0 0 0-1.16-.594.933.933 0 0 0-.586 1.175l.395 1.215-4.396 1.462-.394-1.214a.917.917 0 0 0-1.16-.594.933.933 0 0 0-.587 1.175l.394 1.214-4.395 1.462-.394-1.213a.917.917 0 0 0-1.16-.594.932.932 0 0 0-.586 1.175l.394 1.214-4.396 1.462-.394-1.214a.916.916 0 0 0-1.16-.593.933.933 0 0 0-.586 1.174l.394 1.214-4.395 1.463-.395-1.214a.917.917 0 0 0-1.16-.594.933.933 0 0 0-.586 1.175l.395 1.214-1.715.57-.694.264-.242 6.752-2.651 1.03v1.96l3.269-1.088 1.446 4.45-4.502 1.498a.898.898 0 0 0-.213.107v1.552c.226.15.511.2.787.108l4.503-1.498 1.446 4.45-4.504 1.499a.933.933 0 0 0-.586 1.174.916.916 0 0 0 1.16.593l4.505-1.499 1.446 4.45-4.507 1.5a.933.933 0 0 0-.586 1.174.917.917 0 0 0 1.16.593l4.507-1.5 1.177 3.62 3.486-1.178 1.265 3.895a.917.917 0 0 0 1.16.594.933.933 0 0 0 .587-1.175l-1.268-3.903 4.389-1.485 1.274 3.926a.916.916 0 0 0 1.16.593.933.933 0 0 0 .586-1.174L26.3 65.818l4.389-1.484 1.284 3.955a.917.917 0 0 0 1.16.594.933.933 0 0 0 .585-1.175l-1.286-3.964 4.388-1.484 1.294 3.985a.916.916 0 0 0 1.16.594.932.932 0 0 0 .586-1.174l-1.296-3.994 4.388-1.484 1.304 4.014a.916.916 0 0 0 1.16.594.933.933 0 0 0 .586-1.174l-1.306-4.024 4.046-1.368 1.37 4.219a.917.917 0 0 0 1.16.593.934.934 0 0 0 .586-1.174l-1.373-4.227 1.98-.67v-1.672z"/>
    </g>
</svg>
