<?xml version="1.0" encoding="UTF-8" standalone="no"?>
<svg width="22px" height="20px" viewBox="0 0 22 20" version="1.1" xmlns="http://www.w3.org/2000/svg" xmlns:xlink="http://www.w3.org/1999/xlink">
    <!-- Generator: sketchtool 3.6.1 (26313) - http://www.bohemiancoding.com/sketch -->
    <title>CD549000-E578-4D0B-B4D5-7B031015285F</title>
    <desc>Created with sketchtool.</desc>
    <defs></defs>
    <g id="Spec" stroke="none" stroke-width="1" fill="none" fill-rule="evenodd">
        <g id="Flogo_Store" transform="translate(-1088.000000, -519.000000)" fill="#79B8DC">
            <g id="Group-3" transform="translate(253.000000, 266.000000)">
                <g id="addtile-1-copy-4" transform="translate(312.000000, 230.268519)">
                    <path d="M543.730357,42.7349065 L534.00153,42.7349065 L534.000306,42.7349065 L524.269031,42.7349065 C523.567821,42.7349065 523,42.1872398 523,41.5103284 L523,35.3897984 C523,34.7140673 523.567821,34.1658104 524.269031,34.1658104 C524.970241,34.1658104 525.538673,34.7140673 525.538673,35.3897984 L525.538673,40.2863404 L542.461327,40.2863404 L542.461327,35.3897984 C542.461327,34.7140673 543.029148,34.1658104 543.730357,34.1658104 C544.431567,34.1658104 545,34.7140673 545,35.3897984 L545,41.5103284 C545,42.1872398 544.431567,42.7349065 543.730357,42.7349065 M538.750911,31.7201951 L534.943819,35.8011386 C534.711306,36.0495952 534.374162,36.2059871 534.000306,36.2059871 C533.625226,36.2059871 533.289306,36.0495952 533.056181,35.8011386 L529.248477,31.7201951 C529.046558,31.5030169 528.922959,31.2162 528.922959,30.9016457 C528.922959,30.2253245 529.491392,29.6770676 530.19199,29.6770676 C530.566458,29.6770676 530.90299,29.8328694 531.136115,30.0825063 L532.730663,31.7916042 L532.730663,24.3721361 C532.730663,23.6964051 533.298484,23.1481481 534.000306,23.1481481 C534.700904,23.1481481 535.269337,23.6964051 535.269337,24.3721361 L535.269337,31.7916042 L536.863885,30.0825063 C537.09701,29.8328694 537.43293,29.6770676 537.807398,29.6770676 C538.508608,29.6770676 539.077041,30.2253245 539.077041,30.9016457 C539.077041,31.2162 538.953442,31.5030169 538.750911,31.7201951" id="13"></path>
                </g>
            </g>
        </g>
    </g>
</svg>