<?xml version="1.0" encoding="UTF-8" standalone="no"?>
<svg width="247px" height="21px" viewBox="0 0 247 21" version="1.1" xmlns="http://www.w3.org/2000/svg" xmlns:xlink="http://www.w3.org/1999/xlink">
    <!-- Generator: sketchtool 40 (33762) - http://www.bohemiancoding.com/sketch -->
    <title>E65DD283-C770-4B59-A077-AEF51F050871</title>
    <desc>Created with sketchtool.</desc>
    <defs>
        <polygon id="path-1" points="16.4713078 0.189109375 0.0475890625 0.189109375 0.0475890625 16.6127687 16.4713078 16.6127687 16.4713078 0.189109375"></polygon>
        <polygon id="path-3" points="16.6568547 0.189109375 0.233135938 0.189109375 0.233135938 16.6127687 16.6568547 16.6127687 16.6568547 0.189109375"></polygon>
    </defs>
    <g id="All-Screens" stroke="none" stroke-width="1" fill="none" fill-rule="evenodd">
        <g id="Flogo_LandingPage-Option-2" transform="translate(-72.000000, -22.000000)">
            <g id="Group-6">
                <g id="projectflogo" transform="translate(73.000000, 23.000000)">
                    <g id="Page-1">
                        <path d="M0.90048125,1.4371125 L0.90048125,10.06905 L3.62104375,10.06905 C4.80795,10.06905 5.82266875,9.64719063 6.6663875,8.80376875 C7.51010625,7.96034688 7.9322625,6.94176875 7.9322625,5.74803438 C7.9322625,4.5543 7.51010625,3.53750313 6.6663875,2.69734688 C5.82266875,1.85719063 4.80795,1.4371125 3.62104375,1.4371125 L0.90048125,1.4371125 Z M0.90048125,10.9792688 L0.90048125,16.5302375 L5.93749992e-05,16.5302375 L5.93749992e-05,0.52689375 L4.20084062,0.52689375 C5.42159062,0.6937375 6.45827812,1.20376875 7.31179375,2.05728438 C8.33215312,3.07734688 8.8418875,4.30759688 8.8418875,5.74803438 C8.8418875,7.19500313 8.33215312,8.42851875 7.31179375,9.44887813 C6.29173125,10.4689406 5.06148125,10.9792688 3.62104375,10.9792688 L0.90048125,10.9792688 Z" id="Fill-1" stroke="#FFFFFF" fill="#FEFEFE"></path>
                        <path d="M17.7023297,6.70824687 L18.6021578,6.70824687 L18.6021578,8.4987 C18.7888922,8.23210625 19.0059078,7.97530938 19.2523141,7.72860625 C20.0461578,6.93505938 20.8595953,6.51824687 21.6926266,6.47816875 L21.6926266,7.45845 C21.1261891,7.48516875 20.5395641,7.80193437 19.9324547,8.40874688 C19.0789391,9.25543438 18.6360016,10.2725281 18.6021578,11.4591375 L18.6021578,16.5303563 L17.7023297,16.5303563 L17.7023297,6.70824687 Z" id="Fill-3" stroke="#FFFFFF" fill="#FEFEFE"></path>
                        <path d="M32.3431359,8.10854687 C31.4566672,8.9953125 31.0131359,10.0655469 31.0131359,11.31925 C31.0131359,12.5729531 31.4566672,13.6414062 32.3431359,14.5249062 C33.2301984,15.4084062 34.3001359,15.8501562 35.5541359,15.8501562 C36.8072453,15.8501562 37.8777766,15.4084062 38.7648391,14.5249062 C39.6513078,13.6414062 40.0948391,12.5729531 40.0948391,11.31925 C40.0948391,10.0655469 39.6513078,8.9953125 38.7648391,8.10854687 C37.8777766,7.22178125 36.8072453,6.77825 35.5541359,6.77825 C34.3001359,6.77825 33.2301984,7.22178125 32.3431359,8.10854687 M35.5541359,5.81815625 C37.0747297,5.81815625 38.3694016,6.35490625 39.4396359,7.42840625 C40.5101672,8.50220312 41.0451359,9.79895312 41.0451359,11.31925 C41.0451359,12.8330156 40.5101672,14.1265 39.4396359,15.2 C38.3694016,16.2737969 37.0747297,16.8105469 35.5541359,16.8105469 C34.0403703,16.8105469 32.7465891,16.2737969 31.6733859,15.2 C30.5995891,14.1265 30.0625422,12.8330156 30.0625422,11.31925 C30.0625422,9.79895312 30.5995891,8.50220312 31.6733859,7.42840625 C32.7465891,6.35490625 34.0403703,5.81815625 35.5541359,5.81815625" id="Fill-5" stroke="#FFFFFF" fill="#FEFEFE"></path>
                        <path d="M51.9003703,3.48756875 C52.0773078,3.66094375 52.1654797,3.87113125 52.1654797,4.11783437 C52.1654797,4.37136562 52.0773078,4.58452188 51.9003703,4.75789687 C51.7240266,4.93127188 51.5117609,5.01795938 51.2653547,5.01795938 C51.0183547,5.01795938 50.8066828,4.93127188 50.6306359,4.75789687 C50.4536984,4.58452188 50.3649328,4.37136562 50.3649328,4.11783437 C50.3649328,3.87113125 50.4536984,3.66094375 50.6306359,3.48756875 C50.8066828,3.31419375 51.0183547,3.22750625 51.2653547,3.22750625 C51.5117609,3.22750625 51.7240266,3.31419375 51.9003703,3.48756875 L51.9003703,3.48756875 Z M49.6049328,17.9106469 C50.4118391,17.8171312 50.8155891,17.3638031 50.8155891,16.5503656 L50.8155891,6.70836563 L51.7154172,6.70836563 L51.7154172,16.530475 C51.7154172,17.9370688 51.0121203,18.6973656 49.6049328,18.8107719 L49.6049328,17.9106469 Z" id="Fill-7" stroke="#FFFFFF" fill="#FEFEFE"></path>
                        <path d="M69.9471047,7.67846406 C69.1666203,7.07847969 68.2596672,6.77833906 67.2265422,6.77833906 C65.9793703,6.77833906 64.9124016,7.22008906 64.0259328,8.10358906 C63.1385734,8.98708906 62.6956359,10.0555422 62.6956359,11.3092453 C62.6956359,12.3429641 62.9954797,13.2496203 63.5954641,14.0298078 L69.9471047,7.67846406 Z M64.2055422,14.6900578 C65.0528234,15.4637141 66.0592297,15.8502453 67.2265422,15.8502453 C68.4802453,15.8502453 69.5504797,15.4067141 70.4369484,14.5199484 C70.5506516,14.4065422 70.6575266,14.2898703 70.7572766,14.1699328 L71.7075734,14.5098547 C71.5341984,14.7500266 71.3376672,14.9801047 71.1170891,15.2000891 C70.0438859,16.2738859 68.7468391,16.8103391 67.2265422,16.8103391 C65.7124797,16.8103391 64.4189953,16.2738859 63.3457922,15.2000891 C62.2716984,14.1265891 61.7355422,12.8295422 61.7355422,11.3092453 C61.7355422,9.79547969 62.2716984,8.50199531 63.3457922,7.42849531 C64.4189953,6.35499531 65.7124797,5.81794844 67.2265422,5.81794844 C68.5265578,5.81794844 69.6635891,6.20804219 70.6370422,6.98822969 C70.7970578,7.12182344 70.9570734,7.26847969 71.1170891,7.42849531 C71.1776516,7.48846406 71.2337609,7.54843281 71.2871984,7.60840156 L70.6070578,8.28854219 L64.2055422,14.6900578 Z" id="Fill-9" stroke="#FFFFFF" fill="#FEFEFE"></path>
                        <path d="M89.6991484,14.1698438 L90.6494453,14.5100625 C90.4760703,14.7499375 90.2795391,14.9800156 90.0592578,15.2 C88.9860547,16.2737969 87.6890078,16.8105469 86.1684141,16.8105469 C84.6546484,16.8105469 83.3608672,16.2737969 82.2876641,15.2 C81.2138672,14.1265 80.6774141,12.8294531 80.6774141,11.3091562 C80.6774141,9.7956875 81.2138672,8.50220312 82.2876641,7.42840625 C83.3608672,6.35490625 84.6546484,5.81815625 86.1684141,5.81815625 C87.6890078,5.81815625 88.9860547,6.35490625 90.0592578,7.42840625 C90.2795391,7.64839062 90.4760703,7.87520313 90.6494453,8.10854687 L89.6991484,8.4585625 C89.5993984,8.338625 89.4928203,8.2186875 89.3791172,8.09845312 C88.4926484,7.21821875 87.4221172,6.77825 86.1684141,6.77825 C84.9212422,6.77825 83.8545703,7.22 82.9678047,8.1035 C82.0807422,8.987 81.6378047,10.05575 81.6378047,11.3091562 C81.6378047,12.5628594 82.0807422,13.6330937 82.9678047,14.5198594 C83.8545703,15.4069219 84.9212422,15.8501562 86.1684141,15.8501562 C87.4221172,15.8501562 88.4926484,15.4069219 89.3791172,14.5198594 C89.4928203,14.4064531 89.5993984,14.2897813 89.6991484,14.1698438" id="Fill-11" stroke="#FFFFFF" fill="#FEFEFE"></path>
                        <polygon id="Fill-13" stroke="#FFFFFF" fill="#FEFEFE" points="101.619956 6.70824687 101.619956 2.52735625 102.519784 2.52735625 102.519784 6.70824687 104.520425 6.70824687 104.520425 7.60837188 102.519784 7.60837188 102.519784 16.5303563 101.619956 16.5303563 101.619956 7.60837188 99.6196125 7.60837188 99.6196125 6.70824687"></polygon>
                        <polygon id="Fill-15" stroke="#FFFFFF" fill="#FEFEFE" points="135.343116 0.526923437 135.343116 1.42704844 129.241444 1.42704844 129.241444 8.07853281 135.343116 8.07853281 135.343116 8.97865781 129.241444 8.97865781 129.241444 16.5302672 128.341616 16.5302672 128.341616 0.526923437"></polygon>
                        <polygon id="Fill-17" stroke="#FFFFFF" fill="#FEFEFE" points="145.262897 16.5303563 145.262897 0.5270125 146.162725 0.5270125 146.162725 15.6302313 152.364147 15.6302313 152.364147 16.5303563"></polygon>
                        <g id="Group-21" transform="translate(160.906250, 0.107706)">
                            <mask id="mask-2" fill="white">
                                <use xlink:href="#path-1"></use>
                            </mask>
                            <g id="Clip-20"></g>
                        </g>
                        <path d="M200.690409,14.5399281 C199.170112,15.993725 197.353534,16.720475 195.239487,16.720475 C192.972253,16.720475 191.040191,15.9218813 189.4433,14.3249906 C187.846409,12.7278031 187.047519,10.7957406 187.047519,8.52850625 C187.047519,6.2681 187.846409,4.33781875 189.4433,2.73736562 C191.040191,1.13720937 192.972253,0.336834375 195.239487,0.336834375 C197.353534,0.336834375 199.1903,1.04695937 200.750675,2.46720937 L200.070534,3.08738125 C198.696894,1.867225 197.086644,1.25714687 195.239487,1.25714687 C193.232612,1.25714687 191.518456,1.96727187 190.098503,3.38752187 C188.677956,4.80777187 187.967831,6.52163125 187.967831,8.52850625 C187.967831,10.5425063 188.677956,12.2593344 190.098503,13.6798813 C191.518456,15.1001313 193.232612,15.8102563 195.239487,15.8102563 C196.959878,15.8102563 198.476612,15.2800375 199.790581,14.2198969 L199.790581,9.33867813 L200.690409,9.33867813 L200.690409,14.5399281 Z" id="Fill-22" stroke="#FFFFFF" fill="#FEFEFE"></path>
                        <g id="Group-26" transform="translate(210.187500, 0.107706)">
                            <mask id="mask-4" fill="white">
                                <use xlink:href="#path-3"></use>
                            </mask>
                            <g id="Clip-25"></g>
                        </g>
                        <polygon id="Fill-27" fill="#FEFEFE" points="233.329648 2.04710156 231.337914 2.04710156 231.337914 0.719476562 236.760633 0.719476562 236.760633 2.04710156 234.769195 2.04710156 234.769195 7.26438281 233.329648 7.26438281"></polygon>
                        <polygon id="Fill-29" fill="#FEFEFE" points="238.79767 0.719565625 240.349436 0.719565625 242.069827 3.48703438 243.790217 0.719565625 245.34228 0.719565625 245.34228 7.264175 243.911936 7.264175 243.911936 2.99155 242.069827 5.78722188 242.03242 5.78722188 240.209311 3.01945625 240.209311 7.264175 238.79767 7.264175"></polygon>
                        <path d="M169.165995,1.21706875 C167.152292,1.21706875 165.433683,1.928975 164.009573,3.35249062 C162.586058,4.77630312 161.874152,6.4949125 161.874152,8.50861562 C161.874152,10.5226156 162.586058,12.2430063 164.009573,13.6697875 C165.433683,15.0965688 167.152292,15.8102563 169.165995,15.8102563 C171.179698,15.8102563 172.898308,15.0965688 174.321823,13.6697875 C175.745339,12.2430063 176.457542,10.5226156 176.457542,8.50861562 C176.457542,6.4949125 175.745339,4.77630312 174.321823,3.35249062 C172.898308,1.928975 171.179698,1.21706875 169.165995,1.21706875 M174.97198,2.70233437 C176.575698,4.30605312 177.377558,6.24167813 177.377558,8.50861562 C177.377558,10.77585 176.575698,12.7111781 174.97198,14.3148969 C173.367964,15.9186156 171.43323,16.720475 169.165995,16.720475 C166.898761,16.720475 164.963433,15.9186156 163.359417,14.3148969 C161.755698,12.7111781 160.953839,10.77585 160.953839,8.50861562 C160.953839,6.24167813 161.755698,4.30605312 163.359417,2.70233437 C164.963433,1.0989125 166.898761,0.29675625 169.165995,0.29675625 C171.43323,0.29675625 173.367964,1.0989125 174.97198,2.70233437" id="Fill-19" stroke="#FFFFFF" fill="#FEFEFE"></path>
                        <path d="M218.632198,1.21706875 C216.618495,1.21706875 214.899886,1.928975 213.47637,3.35249062 C212.052261,4.77630312 211.340652,6.4949125 211.340652,8.50861562 C211.340652,10.5226156 212.052261,12.2430063 213.47637,13.6697875 C214.899886,15.0965688 216.618495,15.8102563 218.632198,15.8102563 C220.645902,15.8102563 222.364511,15.0965688 223.78862,13.6697875 C225.212136,12.2430063 225.924042,10.5226156 225.924042,8.50861562 C225.924042,6.4949125 225.212136,4.77630312 223.78862,3.35249062 C222.364511,1.928975 220.645902,1.21706875 218.632198,1.21706875 M224.438777,2.70233437 C226.042495,4.30605312 226.844355,6.24167813 226.844355,8.50861562 C226.844355,10.77585 226.042495,12.7111781 224.438777,14.3148969 C222.834761,15.9186156 220.899433,16.720475 218.632198,16.720475 C216.364964,16.720475 214.429636,15.9186156 212.826214,14.3148969 C211.222495,12.7111781 210.420636,10.77585 210.420636,8.50861562 C210.420636,6.24167813 211.222495,4.30605312 212.826214,2.70233437 C214.429636,1.0989125 216.364964,0.29675625 218.632198,0.29675625 C220.899433,0.29675625 222.834761,1.0989125 224.438777,2.70233437" id="Fill-24" stroke="#FFFFFF" fill="#FEFEFE"></path>
                    </g>
                </g>
            </g>
        </g>
    </g>
</svg>