<svg xmlns="http://www.w3.org/2000/svg" xmlns:xlink="http://www.w3.org/1999/xlink" width="46" height="46" viewBox="0 0 46 46">
    <defs>
        <circle id="a" cx="23" cy="23" r="23"/>
    </defs>
    <g fill="none" fill-rule="evenodd">
        <g>
            <mask id="b" fill="#fff">
                <use xlink:href="#a"/>
            </mask>
            <use fill="#B3D6E9" xlink:href="#a"/>
            <g fill="#899BCF" mask="url(#b)">
                <path d="M0 0h46v46H0z"/>
            </g>
        </g>
        <g fill="#FFF">
            <path d="M34.5 24.53l2 5.97-2 5.97v.03h-9.4a.6.6 0 0 1-.6-.6V25.1a.6.6 0 0 1 .6-.6h9.4v.03zM21 9.53l2 5.97-2 5.97v.03h-9.385a.615.615 0 0 1-.615-.615v-10.77c0-.34.276-.615.615-.615H21v.03z" opacity=".5"/>
            <path d="M24.497 28.92h-5.95c-.439 0-.796-.375-.796-.836V21.5h-3.229v6.584c0 2.333 1.805 4.23 4.024 4.23h5.95l1.048-1.717-1.047-1.677z"/>
        </g>
    </g>
</svg>
