<?xml version="1.0" encoding="UTF-8" standalone="no"?>
<svg width="20px" height="21px" viewBox="0 0 20 21" version="1.1" xmlns="http://www.w3.org/2000/svg" xmlns:xlink="http://www.w3.org/1999/xlink">
    <!-- Generator: sketchtool 41 (35326) - http://www.bohemiancoding.com/sketch -->
    <title>30FDFE6F-3235-42EF-99B2-09B7D2B7AEF3</title>
    <desc>Created with sketchtool.</desc>
    <defs>
        <filter x="-50%" y="-50%" width="200%" height="200%" filterUnits="objectBoundingBox" id="filter-1">
            <feOffset dx="0" dy="2" in="SourceAlpha" result="shadowOffsetOuter1"></feOffset>
            <feGaussianBlur stdDeviation="2" in="shadowOffsetOuter1" result="shadowBlurOuter1"></feGaussianBlur>
            <feColorMatrix values="0 0 0 0 0   0 0 0 0 0   0 0 0 0 0  0 0 0 0.5 0" type="matrix" in="shadowBlurOuter1" result="shadowMatrixOuter1"></feColorMatrix>
            <feMerge>
                <feMergeNode in="shadowMatrixOuter1"></feMergeNode>
                <feMergeNode in="SourceGraphic"></feMergeNode>
            </feMerge>
        </filter>
    </defs>
    <g id="All-Screens" stroke="none" stroke-width="1" fill="none" fill-rule="evenodd">
        <g id="Flogo_debuglog" transform="translate(-1319.000000, -292.000000)">
            <g id="debug-sidepanel" filter="url(#filter-1)" transform="translate(1089.000000, 64.000000)">
                <g id="debug" transform="translate(234.000000, 230.500000)">
                    <g id="Group-9-Copy" transform="translate(6.000000, 6.000000) rotate(-180.000000) translate(-6.000000, -6.000000) " fill="#F6A623">
                        <path d="M6,0 C2.68643478,0 0,2.68643478 0,6 C0,9.31356522 2.68643478,12 6,12 C9.31356522,12 12,9.31356522 12,6 C12,2.68643478 9.31356522,0 6,0 L6,0 Z" id="Info-Circle-Icon"></path>
                    </g>
                    <polygon id="*" fill="#FFFFFF" points="4.873 8.541 6.007 7.295 7.127 8.541 7.981 7.925 7.155 6.469 8.667 5.783 8.331 4.775 6.721 5.125 6.539 3.459 5.461 3.459 5.279 5.111 3.655 4.775 3.333 5.783 4.845 6.469 4.019 7.925"></polygon>
                </g>
            </g>
        </g>
    </g>
</svg>