<?xml version="1.0" encoding="utf-8"?>
<!-- Generator: Adobe Illustrator 21.1.0, SVG Export Plug-In . SVG Version: 6.00 Build 0)  -->
<svg version="1.1" id="Layer_1" xmlns="http://www.w3.org/2000/svg" xmlns:xlink="http://www.w3.org/1999/xlink" x="0px" y="0px"
	 viewBox="0 0 146 85" style="enable-background:new 0 0 146 85;" xml:space="preserve">
<style type="text/css">
	.st0{filter:url(#Adobe_OpacityMaskFilter);}
	.st1{fill:#FFFFFF;}
	.st2{mask:url(#b);fill:#9B9B9B;}
	.st3{fill:#36BFBB;}
	.st4{filter:url(#Adobe_OpacityMaskFilter_1_);}
	.st5{mask:url(#b_1_);fill:#9B9B9B;}
	.st6{fill:none;stroke:#D8D8D8;stroke-width:3.103;}
	.st7{fill:#EE3342;}
	.st8{font-family:'SourceSansPro-Bold';}
	.st9{font-size:24.828px;}
</style>
<g>
	<g transform="translate(16)">
		<defs>
			<filter id="Adobe_OpacityMaskFilter" filterUnits="userSpaceOnUse" x="-253" y="0" width="129.8" height="84.9">
				<feColorMatrix  type="matrix" values="1 0 0 0 0  0 1 0 0 0  0 0 1 0 0  0 0 0 1 0"/>
			</filter>
		</defs>
		<mask maskUnits="userSpaceOnUse" x="-253" y="0" width="129.8" height="84.9" id="b">
			<g class="st0">
				<path id="a" class="st1" d="M-253,0h129.8v84.9H-253V0z"/>
			</g>
		</mask>
		<path class="st2" d="M-172.4,65.4L-172.4,65.4c0.7-0.1,1.5-0.2,2.3-0.3C-171,65.3-171.8,65.4-172.4,65.4 M-123.3,27.3
			c0.7-6.4-3.5-2.8-4.7-1.7c-4,3.7-11.4,12.1-21.8,20.9c-8.7,7.4-15.9,12-21,14.8c4.1-2.4,9.2-5.8,14.3-10.2
			c8.1-6.9,27-28.6,22.3-47.9c-1.6-6.6-4.5-1.1-5.2-0.1c-0.7,1.1-6.9,13.8-14,26.1c-3.2,5.5-6.6,10.9-10.2,16.2c2-3.9,3-7,3.4-8.6
			c2.3-8.3,2.5-16.3,1.1-20.4s-3.3-4.7-4.3-4.7c-0.9,0.1,0.1,9.8-4.4,28.3c-1.8,7.1-5.4,15.4-7.9,20.6l0,0c-0.4-2.7-1.4-5.2-3.1-7.3
			c-0.8-1.2-1.8-2.3-2.9-3.2c0,0,0.1,0,0.1,0c-2.8-2.5-6.2-4-9.9-4.4c1.6-0.8,3.2-1.6,4.8-2.5c0.1-0.1,0.8-0.2,0.6-0.9
			c-0.2-0.7-2.3-0.6-7.9,2.8c4.7-2.9,5.4-3.4,5.4-3.4s0.4-0.2,0.5-0.3c0.1-0.1,0.4-0.3,0.1-0.6c-0.3-0.3-1.2-0.4-2.4,0.3
			c-0.7,0.4-2.2,1.3-3.4,2.1c1.5-1.3,1.6-1.4,1.6-1.4s1.2-0.9,1.2-1s0.3-0.3,0-0.5c-0.3-0.2-1.1-0.3-1.9,0.4
			c-0.8,0.7-4.5,4.6-4.8,5.2c-4.2,0.4-10.8,4.5-10.1,10.2c-0.7-0.2-1.5-0.4-2.2-0.6c-5.5-1.3-11.2-2-16.9-2
			c-8.9,0-17.8,1.6-26.1,4.9c6.2-1.7,12.7-2.6,19.2-2.6c7.9,0,15.5,1.3,22.5,3.6c0.8,0.3,1.7,0.6,2.5,0.9c3,1.5,5.6,3.4,8.3,5.6
			c0.2,0.2,0.3,0.3,0.5,0.5c1.7,2.6,3.6,5.7,6.4,9.2h0c3.7,5.2,8.6,6.9,14.6,6.9c3.6,0,5.7-0.7,8.3-2.1c0.6,0.5,4.9,3.4,6,4.1
			c1.2,0.7,2.2,0.4,2.6,0.2c0.3-0.2,0-0.5-0.1-0.5c-0.1-0.1-1.8-1-1.8-1s-0.2-0.1-2.3-1.4c1.7,0.8,3.8,1.6,4.8,2
			c1.7,0.7,2.8,0.4,3.2,0.1c0.3-0.4-0.1-0.6-0.2-0.7c-0.1-0.1-0.7-0.3-0.7-0.3s-1.1-0.4-7.6-3.2c7.8,3.2,10.5,3,10.7,2.2
			c0.2-0.8-0.7-0.9-0.9-1c-0.1,0-4.8-1.7-8.8-3c0.1-0.1,0.2-0.2,0.2-0.4c-0.2-2.5-0.5-4.3-2.2-6.9c6.3,2.7,15.4,4.5,24.9,2.4
			c7.2-1.5,10.2-5.3,9.6-6.7c-0.9-2.1-18.5,0.5-30.3,0.8c9.5-0.4,23.2-3.4,32.2-9.7c6-4.2,7.3-8.8,6.2-9.8
			c-1.8-1.8-20.4,9.2-30.9,13.8c-4.3,1.8-9,2.9-12.5,3.5c2.7-0.5,5.8-1.3,9.5-2.7C-149.6,58.5-125.3,46.2-123.3,27.3"/>
	</g>
	<path class="st3" d="M-213.3,35l2.4,7.1l-6.8-2.3c-3.5,2.7-7.8,4.2-12.3,4.2c-11,0-20-9-20-20s9-20,20-20s20,9,20,20
		C-210,28-211.2,31.8-213.3,35z M-218.8,17.7l-1.6-1.4l-13.2,14.9l-6.5-4.5l-1.3,1.8l7.3,5.1c0.5,0.3,1.1,0.2,1.4-0.2L-218.8,17.7
		L-218.8,17.7z"/>
</g>
<g>
	<g transform="translate(16)">
		<defs>
			<filter id="Adobe_OpacityMaskFilter_1_" filterUnits="userSpaceOnUse" x="0" y="0" width="129.8" height="84.9">
				<feColorMatrix  type="matrix" values="1 0 0 0 0  0 1 0 0 0  0 0 1 0 0  0 0 0 1 0"/>
			</filter>
		</defs>
		<mask maskUnits="userSpaceOnUse" x="0" y="0" width="129.8" height="84.9" id="b_1_">
			<g class="st4">
				<path id="a_1_" class="st1" d="M0,0h129.8v84.9H0V0z"/>
			</g>
		</mask>
		<path class="st5" d="M80.6,65.4L80.6,65.4c0.7-0.1,1.5-0.2,2.3-0.3C82,65.3,81.2,65.4,80.6,65.4 M129.7,27.3
			c0.7-6.4-3.5-2.8-4.7-1.7c-4,3.7-11.4,12.1-21.8,20.9c-8.7,7.4-15.9,12-21,14.8c4.1-2.4,9.2-5.8,14.3-10.2
			c8.1-6.9,27-28.6,22.3-47.9c-1.6-6.6-4.5-1.1-5.2-0.1c-0.7,1.1-6.9,13.8-14,26.1c-3.2,5.5-6.6,10.9-10.2,16.2c2-3.9,3-7,3.4-8.6
			c2.3-8.3,2.5-16.3,1.1-20.4c-1.4-4.1-3.3-4.7-4.3-4.7c-0.9,0.1,0.1,9.8-4.4,28.3c-1.8,7.1-5.4,15.4-7.9,20.6l0,0
			c-0.4-2.7-1.4-5.2-3.1-7.3c-0.8-1.2-1.8-2.3-2.9-3.2c0,0,0.1,0,0.1,0c-2.8-2.5-6.2-4-9.9-4.4c1.6-0.8,3.2-1.6,4.8-2.5
			c0.1-0.1,0.8-0.2,0.6-0.9c-0.2-0.7-2.3-0.6-7.9,2.8c4.7-2.9,5.4-3.4,5.4-3.4s0.4-0.2,0.5-0.3c0.1-0.1,0.4-0.3,0.1-0.6
			c-0.3-0.3-1.2-0.4-2.4,0.3c-0.7,0.4-2.2,1.3-3.4,2.1c1.5-1.3,1.6-1.4,1.6-1.4s1.2-0.9,1.2-1s0.3-0.3,0-0.5
			c-0.3-0.2-1.1-0.3-1.9,0.4c-0.8,0.7-4.5,4.6-4.8,5.2c-4.2,0.4-10.8,4.5-10.1,10.2c-0.7-0.2-1.5-0.4-2.2-0.6
			c-5.5-1.3-11.2-2-16.9-2c-8.9,0-17.8,1.6-26.1,4.9C6.2,56.8,12.7,56,19.2,56c7.9,0,15.5,1.3,22.5,3.6c0.8,0.3,1.7,0.6,2.5,0.9
			c3,1.5,5.6,3.4,8.3,5.6c0.2,0.2,0.3,0.3,0.5,0.5c1.7,2.6,3.6,5.7,6.4,9.2h0c3.7,5.2,8.6,6.9,14.6,6.9c3.6,0,5.7-0.7,8.3-2.1
			c0.6,0.5,4.9,3.4,6,4.1c1.2,0.7,2.2,0.4,2.6,0.2c0.3-0.2,0-0.5-0.1-0.5c-0.1-0.1-1.8-1-1.8-1s-0.2-0.1-2.3-1.4
			c1.7,0.8,3.8,1.6,4.8,2c1.7,0.7,2.8,0.4,3.2,0.1c0.3-0.4-0.1-0.6-0.2-0.7c-0.1-0.1-0.7-0.3-0.7-0.3s-1.1-0.4-7.6-3.2
			c7.8,3.2,10.5,3,10.7,2.2c0.2-0.8-0.7-0.9-0.9-1c-0.1,0-4.8-1.7-8.8-3c0.1-0.1,0.2-0.2,0.2-0.4c-0.2-2.5-0.5-4.3-2.2-6.9
			c6.3,2.7,15.4,4.5,24.9,2.4c7.2-1.5,10.2-5.3,9.6-6.7c-0.9-2.1-18.5,0.5-30.3,0.8c9.5-0.4,23.2-3.4,32.2-9.7
			c6-4.2,7.3-8.8,6.2-9.8c-1.8-1.8-20.4,9.2-30.9,13.8c-4.3,1.8-9,2.9-12.5,3.5c2.7-0.5,5.8-1.3,9.5-2.7
			C103.4,58.5,127.7,46.2,129.7,27.3"/>
	</g>
</g>
<g>
	<path class="st6" d="M39.7,35c2.1-3.3,3.3-7.1,3.3-11c0-11-9-20-20-20S3,13,3,24s9,20,20,20c4.6,0,8.9-1.6,12.3-4.2l6.8,2.3
		L39.7,35z"/>
	<text transform="matrix(1 0 0 1 18.034 31.931)" class="st7 st8 st9">!</text>
</g>
</svg>
