<svg width="193" height="137" viewBox="0 0 193 137" xmlns="http://www.w3.org/2000/svg" xmlns:xlink="http://www.w3.org/1999/xlink"><defs><path id="a" d="M0 0h179.672v117.863H0z"/></defs><g fill="none" fill-rule="evenodd"><path d="M3.852 119.325L25.42 97.657a42.666 42.666 0 0 1-6.6-22.861C18.82 51.199 37.926 32 61.413 32 84.899 32 104 51.2 104 74.796c0 23.597-19.101 42.796-42.592 42.796a42.162 42.162 0 0 1-21.762-6.021l-21.758 21.86c-9.29 9.32-23.33-4.772-14.036-14.106zM90 74.526C90 58.248 76.814 45 60.611 45 44.41 45 31.223 58.244 31.223 74.526c0 16.283 13.186 29.526 29.388 29.526C76.814 104.052 90 90.804 90 74.526z" opacity=".2" fill-rule="nonzero" fill="#000"/><g transform="translate(13)"><mask id="b" fill="#fff"><use xlink:href="#a"/></mask><path d="M111.602 90.86l-.081-.064a51.701 51.701 0 0 0 3.282-.396 97.8 97.8 0 0 1-3.2.46m67.966-53.027c.945-8.929-4.877-3.9-6.46-2.42-5.488 5.13-15.845 16.818-30.187 29.056-12.081 10.31-22.014 16.706-29.056 20.57 5.675-3.373 12.777-8.1 19.778-14.124 11.21-9.645 37.415-39.76 30.866-66.5-2.227-9.099-6.24-1.551-7.197-.086-.956 1.466-9.615 19.16-19.367 36.255-4.72 8.272-9.572 15.855-14.118 22.496 2.704-5.45 4.12-9.677 4.757-12.001 3.15-11.468 3.426-22.61 1.472-28.315-1.954-5.705-4.62-6.587-5.93-6.475-1.213.173.19 13.577-6.158 39.251-2.447 9.897-7.499 21.438-10.914 28.644l-.006-.042a22.41 22.41 0 0 0-4.234-10.181 25.03 25.03 0 0 0-3.986-4.45c.049.022.1.04.148.062a24.73 24.73 0 0 0-13.65-6.134c3.356-1.72 6.568-3.37 6.633-3.413.137-.09 1.102-.346.765-1.251-.337-.906-3.206-.81-10.979 3.83 6.439-4.089 7.509-4.686 7.509-4.686s.541-.31.678-.4c.137-.09.54-.44.143-.816-.397-.376-1.63-.492-3.32.47-.93.529-3.005 1.804-4.727 2.9 2.055-1.787 2.243-1.906 2.243-1.906s1.608-1.275 1.7-1.366c.093-.091.355-.426.004-.654-.351-.228-1.495-.454-2.658.557-1.162 1.012-6.296 6.41-6.637 7.242-5.786.494-14.888 6.3-14.044 14.159a99.12 99.12 0 0 0-3.068-.801 99.44 99.44 0 0 0-23.455-2.79c-12.741 0-24.921 2.403-36.114 6.78a99.27 99.27 0 0 1 26.538-3.592 99.078 99.078 0 0 1 31.221 5.016c1.15.381 2.29.787 3.422 1.209 4.22 2.066 7.708 4.652 11.44 7.734.213.217.47.425.748.628 2.419 3.644 5.01 7.935 8.877 12.72h.036c5.12 7.243 11.923 9.53 20.195 9.53 4.973 0 7.872-.912 11.457-2.974.772.663 6.73 4.656 8.322 5.638 1.67 1.03 3.117.623 3.535.312.418-.31.024-.666-.11-.761-.135-.095-2.427-1.376-2.427-1.376s-.262-.115-3.215-1.936c2.41 1.06 5.306 2.28 6.597 2.78 2.345.905 3.925.615 4.379.126.453-.49-.126-.846-.317-.934-.193-.087-.945-.379-.945-.379s-1.484-.56-10.491-4.507c10.826 4.421 14.56 4.168 14.85 3.071.29-1.097-1.002-1.274-1.194-1.361-.112-.051-6.707-2.303-12.221-4.183.115-.17.216-.338.285-.504-.247-3.416-.736-5.934-3.085-9.582 8.783 3.771 21.305 6.209 34.498 3.368 9.945-2.14 14.079-7.298 13.241-9.255-1.268-2.966-25.61.74-42.004 1.044 13.13-.547 32.156-4.713 44.63-13.433 8.342-5.83 10.158-12.187 8.63-13.667-2.562-2.48-28.24 12.835-42.845 19.119-5.901 2.538-12.449 4.058-17.284 4.923 3.691-.69 8.065-1.86 13.108-3.784 13.239-5.048 46.921-22.213 49.698-48.451" fill="#9B9B9B" mask="url(#b)"/></g></g></svg>
