<?xml version="1.0" encoding="UTF-8" standalone="no"?>
<svg width="12px" height="14px" viewBox="0 0 12 14" version="1.1" xmlns="http://www.w3.org/2000/svg" xmlns:xlink="http://www.w3.org/1999/xlink">
    <!-- Generator: sketchtool 3.6.1 (26313) - http://www.bohemiancoding.com/sketch -->
    <title>320E67B3-624E-4789-A30C-AEFF00E3CA86</title>
    <desc>Created with sketchtool.</desc>
    <defs></defs>
    <g id="Spec" stroke="none" stroke-width="1" fill="none" fill-rule="evenodd">
        <g id="Flogo_Interactions" transform="translate(-567.000000, -977.000000)" fill="#79B8DC">
            <g id="Group-4" transform="translate(44.000000, 910.000000)">
                <g id="icon_trash-hover" transform="translate(523.000000, 67.000000)">
                    <path d="M10.6093615,4.86703947 C10.1204942,7.53076638 9.33295505,11.142634 9.02539777,12.7759736 C8.41640878,13.5285532 7.02247221,13.9048764 5.62853564,13.9048764 C4.23463272,13.9048764 2.84069615,13.5285532 2.23170716,12.7759736 C1.92152463,11.0605545 1.1396735,7.42911067 0.662148581,4.7926434 C1.03553887,4.97798216 1.46695376,5.13552679 1.93855505,5.26574497 C2.25129551,6.83651437 3.19429615,11.5184895 3.32252916,12.198477 C3.86383402,12.5832186 4.8662392,12.7356521 5.62853564,12.7356521 C6.36861848,12.7356521 7.38643855,12.5904678 7.93753758,12.196339 C8.05287997,11.6062148 9.00483337,6.95871501 9.337768,5.30924012 C9.80418612,5.18814188 10.2335479,5.04085302 10.6093615,4.86703947 L10.6093615,4.86703947 Z M11.1341745,3.56221851 C9.03411492,5.19295241 1.92603467,5.11558316 0.132892918,3.4225129 C-0.0255976971,2.62002413 -0.108629412,2.49454965 0.274622368,2.13108791 C0.679818484,1.74678057 1.47344955,1.42009929 2.50513628,1.19911589 C2.45730975,1.60279895 2.7751324,1.94611662 3.17319324,1.94611662 L8.1291803,1.94611662 C8.52794793,1.94611662 8.84408774,1.60213082 8.79754017,1.20135412 C9.8241447,1.42230411 10.6136696,1.74808342 11.0175195,2.13108791 C11.4286729,2.52100753 11.3146094,2.61411119 11.1341745,3.56221851 L11.1341745,3.56221851 Z M8.12914664,1.27798842 C7.6087091,1.27798842 7.18675182,0.658433146 7.18675182,0.141435548 L4.11555441,0.141435548 C4.11555441,0.658466553 3.69366444,1.27798842 3.17315958,1.27798842 L8.12914664,1.27798842 L8.12914664,1.27798842 Z" id="trash-can-12-icon"></path>
                </g>
            </g>
        </g>
    </g>
</svg>