<?xml version="1.0" encoding="UTF-8" standalone="no"?>
<svg width="23px" height="22px" viewBox="0 0 23 22" version="1.1" xmlns="http://www.w3.org/2000/svg" xmlns:xlink="http://www.w3.org/1999/xlink">
    <!-- Generator: sketchtool 3.6.1 (26313) - http://www.bohemiancoding.com/sketch -->
    <title>DDF654F8-7221-449F-90B4-9A621B783BB5</title>
    <desc>Created with sketchtool.</desc>
    <defs></defs>
    <g id="Spec" stroke="none" stroke-width="1" fill="none" fill-rule="evenodd">
        <g id="Flogo_Store" transform="translate(-1096.000000, -316.000000)" fill="#FFFFFF">
            <g id="Group-3" transform="translate(253.000000, 266.000000)">
                <g id="Search" transform="translate(589.000000, 40.260802)">
                    <path d="M275.486189,28.1152356 C275.860015,28.4676973 276.090674,28.9553656 276.090674,29.4938808 C276.090674,30.5709113 275.166815,31.4433984 274.025757,31.4433984 C273.455534,31.4433984 272.939763,31.2255655 272.565325,30.872526 L266.514352,25.1574465 C265.284579,25.8433023 263.85535,26.2431441 262.324558,26.2431441 C257.763384,26.2431441 254.064888,22.75204 254.064888,18.4427625 C254.064888,14.1352185 257.763384,10.642381 262.324558,10.642381 C266.885731,10.642381 270.584228,14.1352185 270.584228,18.4427625 C270.584228,19.889011 270.160231,21.2387659 269.434604,22.3995783 L275.486189,28.1152356 L275.486189,28.1152356 Z M262.324558,12.5930542 C258.903219,12.5930542 256.129805,15.2128268 256.129805,18.4427625 C256.129805,21.6744317 258.903219,24.2930487 262.324558,24.2930487 C265.745896,24.2930487 268.51931,21.6744317 268.51931,18.4427625 C268.51931,15.2128268 265.745896,12.5930542 262.324558,12.5930542 L262.324558,12.5930542 Z" id="35-copy-5"></path>
                </g>
            </g>
        </g>
    </g>
</svg>