<?xml version="1.0" encoding="UTF-8" standalone="no"?>
<svg width="40px" height="40px" viewBox="0 0 40 40" version="1.1" xmlns="http://www.w3.org/2000/svg" xmlns:xlink="http://www.w3.org/1999/xlink">
    <!-- Generator: sketchtool 3.6.1 (26313) - http://www.bohemiancoding.com/sketch -->
    <title>routing-icon</title>
    <desc>Created with sketchtool.</desc>
    <defs></defs>
    <g id="Spec" stroke="none" stroke-width="1" fill="none" fill-rule="evenodd">
        <g id="flogo-gen-cmpt-tiles" transform="translate(-336.000000, -1189.000000)">
            <g id="TILE-badge-Copy" transform="translate(284.000000, 1162.000000)">
                <g id="routing-icon" transform="translate(52.000000, 27.000000)">
                    <ellipse id="icon-bg" fill="#79B8DC" cx="20" cy="20" rx="20" ry="20"></ellipse>
                    <path d="M28.743107,24.44377 L33.157376,20.3294969 L28.743107,16.2162027" id="Stroke-1" stroke="#FFFFFF" stroke-width="2"></path>
                    <path d="M23.3956889,20 L33.1568877,20 L23.3956889,20 Z" id="Fill-3" fill="#FFFFFF"></path>
                    <path d="M23.3953959,20 L33.1575713,20" id="Stroke-4" stroke="#FFFFFF" stroke-width="2"></path>
                    <path d="M11.6123251,16.2232507 L7.19805614,20.3375238 L11.6123251,24.450818" id="Stroke-6" stroke="#FFFFFF" stroke-width="2"></path>
                    <path d="M7.19844678,20 L16.9596456,20 L7.19844678,20 Z" id="Fill-9" fill="#FFFFFF"></path>
                    <path d="M16.9599386,20 L7.19776316,20" id="Stroke-10" stroke="#FFFFFF" stroke-width="2"></path>
                    <path d="M16.073276,10.5358041 L20.1779602,14.9603852 L24.2816678,10.5358041" id="Stroke-12" stroke="#FFFFFF" stroke-width="2"></path>
                    <path d="M20.1778626,5 L20.1778626,14.7840018 L20.1778626,5 Z" id="Fill-15" fill="#FFFFFF"></path>
                    <path d="M20,5.17560025 L20,14.960581" id="Stroke-16" stroke="#FFFFFF" stroke-width="2"></path>
                    <path d="M24.2820585,30.1461937 L20.1773743,25.7216125 L16.0736667,30.1461937" id="Stroke-18" stroke="#FFFFFF" stroke-width="2"></path>
                    <path d="M20.1778626,34.7840018 L20.1778626,25 L20.1778626,34.7840018 Z" id="Fill-21" fill="#FFFFFF"></path>
                    <path d="M20,35.5062996 L20,25.7213189" id="Stroke-22" stroke="#FFFFFF" stroke-width="2"></path>
                </g>
            </g>
        </g>
    </g>
</svg>