<?xml version="1.0" encoding="UTF-8" standalone="no"?>
<svg width="16px" height="15px" viewBox="0 0 16 15" version="1.1" xmlns="http://www.w3.org/2000/svg" xmlns:xlink="http://www.w3.org/1999/xlink">
    <!-- Generator: sketchtool 39.1 (31720) - http://www.bohemiancoding.com/sketch -->
    <title>1F24BEF8-4AEA-4580-B2B1-2A3BD8EC6456</title>
    <desc>Created with sketchtool.</desc>
    <defs></defs>
    <g id="All-Screens" stroke="none" stroke-width="1" fill="none" fill-rule="evenodd">
        <g id="Flogo_LandingPage-2" transform="translate(-346.000000, -601.000000)" fill="#0081CB">
            <g id="Group-3" transform="translate(317.000000, 601.000000)">
                <g id="Group-5">
                    <path d="M44.0766236,14.2449152 L37.0011125,14.2449152 L37.0002225,14.2449152 L29.9229314,14.2449152 C29.4129606,14.2449152 29,13.8466121 29,13.3543129 L29,8.90301835 C29,8.41157757 29.4129606,8.01284527 29.9229314,8.01284527 C30.4329022,8.01284527 30.8463079,8.41157757 30.8463079,8.90301835 L30.8463079,12.4641398 L43.1536921,12.4641398 L43.1536921,8.90301835 C43.1536921,8.41157757 43.5666528,8.01284527 44.0766236,8.01284527 C44.5865944,8.01284527 45,8.41157757 45,8.90301835 L45,13.3543129 C45,13.8466121 44.5865944,14.2449152 44.0766236,14.2449152 M40.4552079,6.23421595 L37.6864136,9.20217487 C37.5173133,9.38287056 37.2721179,9.49661013 37.0002225,9.49661013 C36.7274371,9.49661013 36.4831317,9.38287056 36.3135864,9.20217487 L33.5443471,6.23421595 C33.3974969,6.07626817 33.3076067,5.8676741 33.3076067,5.63890734 C33.3076067,5.14703736 33.7210124,4.74830507 34.2305382,4.74830507 C34.5028786,4.74830507 34.747629,4.86161543 34.9171742,5.04316953 L36.0768461,6.28614987 L36.0768461,0.890173073 C36.0768461,0.398732297 36.4898067,-3.82804899e-13 37.0002225,-3.82804899e-13 C37.5097483,-3.82804899e-13 37.9231539,0.398732297 37.9231539,0.890173073 L37.9231539,6.28614987 L39.0828258,5.04316953 C39.252371,4.86161543 39.4966764,4.74830507 39.7690168,4.74830507 C40.2789876,4.74830507 40.6923933,5.14703736 40.6923933,5.63890734 C40.6923933,5.8676741 40.6025031,6.07626817 40.4552079,6.23421595" id="13"></path>
                </g>
            </g>
        </g>
    </g>
</svg>