<svg xmlns="http://www.w3.org/2000/svg" xmlns:xlink="http://www.w3.org/1999/xlink" width="32" height="26" viewBox="0 0 32 26">
    <defs>
        <path id="a" d="M27.427 3.591a2.332 2.332 0 0 1 2.335 2.33 2.332 2.332 0 0 1-2.335 2.33H9.272v2.362a.646.646 0 0 1-.976.558L.32 6.479a.646.646 0 0 1 0-1.114L8.296.673a.649.649 0 0 1 .976.556v2.364l18.155-.002zm-5.78 19.801H3.633c-1.367 0-2.475-1.044-2.475-2.33s1.108-2.33 2.475-2.33h18.014V16.29c0-.323.277-.583.619-.583.115 0 .228.03.327.088l8.115 4.773a.563.563 0 0 1 0 .988l-8.115 4.772a.642.642 0 0 1-.852-.185.558.558 0 0 1-.094-.31v-2.442.001z"/>
    </defs>
    <use fill="#96A7F8" fill-rule="evenodd" transform="translate(.348 -.652)" xlink:href="#a"/>
</svg>
