<svg xmlns="http://www.w3.org/2000/svg" width="24" height="30" viewBox="0 0 24 30">
    <path fill="#FFF" fill-rule="nonzero" d="M18.667 15.652h-8v-1.304h8v-2.254a.354.354 0 0 1 .54-.301l4.626 2.906c.103.06.167.176.167.301s-.064.24-.167.3l-4.627 2.907a.352.352 0 0 1-.54-.301v-2.254zm0 7.547h-.085c-2.329 0-3.532.037-4.98.208-1.175.138-2.222.354-3.146.664l-.415-1.237c1.017-.34 2.15-.574 3.408-.723 1.514-.178 2.755-.217 5.133-.217h.085V19.92a.354.354 0 0 1 .54-.301l4.626 2.906c.103.06.167.176.167.301s-.064.24-.167.3l-4.627 2.907a.352.352 0 0 1-.54-.301v-2.533zm0-15.093h-.085c-2.378 0-3.619-.039-5.133-.217-1.258-.149-2.391-.383-3.408-.723l.415-1.237c.924.31 1.97.526 3.146.664 1.448.171 2.651.208 4.98.208h.085V4.268a.354.354 0 0 1 .54-.301l4.626 2.906c.103.06.167.176.167.3 0 .126-.064.241-.167.302l-4.627 2.906a.352.352 0 0 1-.54-.301V8.106zM4.68 0h1.305c0 .424.029.824.087 1.202l-1.29.197A9.237 9.237 0 0 1 4.681 0zm.453 2.797l1.227-.442c.135.374.306.72.51 1.04l-1.097.704a6.467 6.467 0 0 1-.64-1.302zm1.57 2.439l.91-.935c.274.266.581.508.922.729L7.83 6.125a7.247 7.247 0 0 1-1.124-.889zM4.682 30c0-.489.034-.955.102-1.4l1.29.198A7.936 7.936 0 0 0 5.986 30H4.68zm.453-2.797c.168-.466.382-.9.64-1.302l1.098.704c-.205.32-.376.666-.51 1.04l-1.228-.442zm1.57-2.439a7.247 7.247 0 0 1 1.125-.89l.707 1.096c-.34.22-.648.463-.922.73l-.91-.936zM0 15.652v-1.304h1.304v1.304H0zm2.609 0v-1.304h1.304v1.304H2.609zm2.608 0v-1.304h1.305v1.304H5.217zm2.61 0v-1.304H9.13v1.304H7.826z"/>
</svg>
