<svg width="160" height="148" viewBox="0 0 160 148" xmlns="http://www.w3.org/2000/svg" xmlns:xlink="http://www.w3.org/1999/xlink"><title>1A45FC38-768A-4851-9B46-CC3D9FC87E6B</title><defs><path d="M87.917 11.054V3.127A3.128 3.128 0 0 0 84.796 0H48.12A3.128 3.128 0 0 0 45 3.127v36.746A3.128 3.128 0 0 0 48.121 43h36.675c1.717 0 3.12-1.4 3.12-3.127V33.62l5.09-11.283-5.09-11.283z" id="a"/><mask id="g" x="-4.5" y="-4.5" width="57.007" height="52"><path fill="#fff" d="M40.5-4.5h57.007v52H40.5z"/><use xlink:href="#a"/></mask><path d="M67.917 11.054V3.127A3.128 3.128 0 0 0 64.796 0H28.12A3.128 3.128 0 0 0 25 3.127v36.746A3.128 3.128 0 0 0 28.121 43h36.675c1.717 0 3.12-1.4 3.12-3.127V33.62l5.09-11.283-5.09-11.283z" id="b"/><mask id="h" x="-4.5" y="-4.5" width="57.007" height="52"><path fill="#fff" d="M20.5-4.5h57.007v52H20.5z"/><use xlink:href="#b"/></mask><path d="M42.917 11.054V3.127A3.128 3.128 0 0 0 39.796 0H3.12A3.128 3.128 0 0 0 0 3.127v36.746A3.128 3.128 0 0 0 3.121 43h36.675c1.717 0 3.12-1.4 3.12-3.127V33.62l5.09-11.283-5.09-11.283z" id="c"/><mask id="i" x="-4.5" y="-4.5" width="57.007" height="52"><path fill="#fff" d="M-4.5-4.5h57.007v52H-4.5z"/><use xlink:href="#c"/></mask><path d="M87.917 11.054V3.127A3.128 3.128 0 0 0 84.796 0H48.12A3.128 3.128 0 0 0 45 3.127v36.746A3.128 3.128 0 0 0 48.121 43h36.675c1.717 0 3.12-1.4 3.12-3.127V33.62l5.09-11.283-5.09-11.283z" id="d"/><mask id="j" x="-4.5" y="-4.5" width="57.007" height="52"><path fill="#fff" d="M40.5-4.5h57.007v52H40.5z"/><use xlink:href="#d"/></mask><path d="M67.917 11.054V3.127A3.128 3.128 0 0 0 64.796 0H28.12A3.128 3.128 0 0 0 25 3.127v36.746A3.128 3.128 0 0 0 28.121 43h36.675c1.717 0 3.12-1.4 3.12-3.127V33.62l5.09-11.283-5.09-11.283z" id="e"/><mask id="k" x="-4.5" y="-4.5" width="57.007" height="52"><path fill="#fff" d="M20.5-4.5h57.007v52H20.5z"/><use xlink:href="#e"/></mask><path d="M42.917 11.054V3.127A3.128 3.128 0 0 0 39.796 0H3.12A3.128 3.128 0 0 0 0 3.127v36.746A3.128 3.128 0 0 0 3.121 43h36.675c1.717 0 3.12-1.4 3.12-3.127V33.62l5.09-11.283-5.09-11.283z" id="f"/><mask id="l" x="-4.5" y="-4.5" width="57.007" height="52"><path fill="#fff" d="M-4.5-4.5h57.007v52H-4.5z"/><use xlink:href="#f"/></mask></defs><g fill="none" fill-rule="evenodd"><rect fill="#D8D8D8" x=".519" width="158.963" height="148" rx="74"/><g transform="translate(34 31)"><use fill="#FFF" xlink:href="#a"/><use stroke="#D8D8D8" mask="url(#g)" stroke-width="9" xlink:href="#a"/></g><g transform="translate(34 31)"><use fill="#FFF" xlink:href="#b"/><use stroke="#D8D8D8" mask="url(#h)" stroke-width="9" xlink:href="#b"/></g><g transform="translate(34 31)"><use fill="#FFF" xlink:href="#c"/><use stroke="#D8D8D8" mask="url(#i)" stroke-width="9" xlink:href="#c"/></g><g><g transform="translate(34 74)"><use fill="#FFF" xlink:href="#d"/><use stroke="#D8D8D8" mask="url(#j)" stroke-width="9" xlink:href="#d"/></g><g transform="translate(34 74)"><use fill="#FFF" xlink:href="#e"/><use stroke="#D8D8D8" mask="url(#k)" stroke-width="9" xlink:href="#e"/></g><g transform="translate(34 74)"><use fill="#FFF" xlink:href="#f"/><use stroke="#D8D8D8" mask="url(#l)" stroke-width="9" xlink:href="#f"/></g></g></g></svg>