<svg id="Layer_1" data-name="Layer 1" xmlns="http://www.w3.org/2000/svg" xmlns:xlink="http://www.w3.org/1999/xlink" viewBox="0 0 653.40485 603.0666"><defs><style>.cls-1{fill:none;}.cls-2{isolation:isolate;}.cls-3{clip-path:url(#clip-path);}.cls-4{clip-path:url(#clip-path-2);}</style><clipPath id="clip-path"><rect class="cls-1" x="5.90633" y="7.87608" width="583.6575" height="583.6575"/></clipPath><clipPath id="clip-path-2"><rect class="cls-1" x="5.91087" y="7.87798" width="580.4103" height="581.15495"/></clipPath></defs><title>profiles</title><rect class="cls-1" x="29.83126" y="29.77713" width="535.81649" height="535.81689"/><path d="M214.73668,229.64274a6.57932,6.57932,0,0,1-8.3269,5.31165,8.56328,8.56328,0,0,1-6.08295-9.02777A144.63089,144.63089,0,0,1,334.24669,108.49791a8.09615,8.09615,0,0,1,6.306,2.95544,5.57155,5.57155,0,0,1,1.87219,4.23456c.51367,4.11328-2.3183,7.22357-6.39386,7.52649A131.2574,131.2574,0,0,0,214.73668,229.64274Zm130.32617-43.33008a8.12437,8.12437,0,0,0-6.31946-2.95538c-15.613,1.24548-30.39459,6.97455-41.9657,17.05927a69.52644,69.52644,0,0,0-22.54755,39.85425,7.48013,7.48013,0,0,0,5.75177,8.65753c4.02155,1.05017,8.17822-1.26569,8.65808-4.94141a56.95685,56.95685,0,0,1,18.188-32.13922,54.33612,54.33612,0,0,1,33.36169-13.471,7.07281,7.07281,0,0,0,6.73187-7.82947A8.217,8.217,0,0,0,345.06285,186.31266Zm-62.86133-2.47742a94.92625,94.92625,0,0,1,56.41614-23.15851c4.0824-.29626,6.90753-3.42,6.39392-7.52649a8.27636,8.27636,0,0,0-8.17822-7.19,108.38231,108.38231,0,0,0-64.67548,26.44385A105.56016,105.56016,0,0,0,237.262,233.43766a8.1112,8.1112,0,0,0,5.73151,9.33075c4.04852.377,7.847-1.63593,8.67834-5.61462A92.15081,92.15081,0,0,1,282.20153,183.83525ZM653.40483,299.477a136.17574,136.17574,0,0,1-136.1261,136.126H494.67839L459.29216,578.99278a31.64918,31.64918,0,0,1-38.31042,23.14453L267.91094,564.3618a31.64926,31.64926,0,0,1-23.14441-38.31042L267.08782,435.603H163.35125C73.23583,435.603,0,362.36729,0,272.25193A163.19336,163.19336,0,0,1,145.65483,109.9896,204.07021,204.07021,0,0,1,326.70244,0C425.80217,0,508.29448,70.51316,526.80767,164.44,597.59307,169.34056,653.40483,227.60264,653.40483,299.477ZM354.72527,541.59849a11.997,11.997,0,1,0,8.77307,14.52209A11.99712,11.99712,0,0,0,354.72527,541.59849Zm136.6366-207.83423L330.46758,294.05821,277.52605,508.58384,438.42034,548.2899,466.22966,435.603l7.15674-29Zm-92.72253-44.08331,31.71851,7.68793a11.15047,11.15047,0,1,0,5.31128-21.65894l-31.725-7.68146a11.14658,11.14658,0,1,0-5.30475,21.65247Zm225.7655,9.79608a105.54639,105.54639,0,0,0-28.8457-72.73035A107.14966,107.14966,0,0,0,524.80474,193.371l-22.155-1.53394L498.355,170.0482a174.99569,174.99569,0,0,0-326.97974-46.66235l-7.18591,13.79675-15.46875,1.64465A134.19322,134.19322,0,0,0,29,272.25193C29,346.33335,89.2697,406.603,163.35125,406.603H274.24456l38.5498-156.2085a31.64913,31.64913,0,0,1,38.3103-23.14441l153.0708,37.77539A31.64923,31.64923,0,0,1,527.31987,303.336L501.83513,406.603h15.4436A107.24734,107.24734,0,0,0,624.40483,299.477Z"/></svg>